<svg id="Layer_1" data-name="Layer 1" xmlns="http://www.w3.org/2000/svg" xmlns:xlink="http://www.w3.org/1999/xlink" viewBox="0 0 600 500">
  <defs>
    <style>
      .cls-1 {
        fill: none;
      }

      .cls-2 {
        clip-path: url(#clip-path);
      }

      .cls-3, .cls-4, .cls-5, .cls-6 {
        fill: #00b8ff;
      }

      .cls-3 {
        opacity: 0.05;
      }

      .cls-4 {
        opacity: 0.24;
      }

      .cls-5 {
        opacity: 0.3;
      }

      .cls-7 {
        fill: #005784;
      }

      .cls-8 {
        fill: #033e56;
      }

      .cls-9 {
        fill: #fff;
      }

      .cls-10 {
        fill: #032b35;
      }

      .cls-11 {
        fill: #04343f;
      }

      .cls-12 {
        fill: #fac896;
      }

      .cls-13 {
        fill: #006292;
      }

      .cls-14 {
        fill: #dfccc3;
      }

      .cls-15 {
        fill: #f39c55;
      }

      .cls-16 {
        fill: #023444;
      }

      .cls-17 {
        fill: #e62822;
      }

      .cls-18 {
        fill: #231f20;
      }
    </style>
    <clipPath id="clip-path">
      <rect class="cls-1" width="600" height="500"/>
    </clipPath>
  </defs>
  <title>javascript-js-training-course</title>
  <g class="cls-2">
    <rect class="cls-3" x="-2.5958" y="-97.3566" width="605.1916" height="616.4286"/>
    <path id="Path_122" data-name="Path 122" class="cls-3" d="M532.9584,369.44C453.881,335.8676,357.8761,349.3449,276.5,355.025a446.1564,446.1564,0,0,1-57.1183.8181c-16.41-.9613-32.6973-3.8689-48.979-6.5624-38.479-6.364-77.8889-3.9985-115.669,10.8677-7.9628,3.1336-16.14,6.6451-23.2671,12.3179C26.6022,376.34,23.1007,384.5605,25.5,393.15c2.8087,10.0591,8.7838,15.3035,16.1667,18.66a74.6925,74.6925,0,0,0,24.0726,5.9342c16.5969,1.5857,33.2216-.011,49.8272.9244,10.3759.5851,20.888,1.0537,31.2312,2.2729,8.4222.9933,20.847,2.0638,26.6768,11.3246,4.6211,7.34,2.6835,17.7514-2.8349,23.2563a82.5966,82.5966,0,0,1-21.7737,15.8909c-6.9811,3.0147-25.2386,26.9569-18.816,43.801H543.7652c1.07-8.2449-16.3766-52.2118-17.3782-59.0375-2.0253-13.7881,6.2681-23.2012,14.0408-30.7554,6.8122-6.6213,16.2615-19.89,13.6016-33.2356C551.0876,377.4236,543.3592,373.8568,532.9584,369.44Z"/>
    <path id="Path_2212" data-name="Path 2212" class="cls-4" d="M150.7593,367.2H410.2556a4.3591,4.3591,0,0,1,4.3591,4.359v5.7935a4.3591,4.3591,0,0,1-4.3591,4.3591H150.7593a4.3591,4.3591,0,0,1-4.3591-4.3591h0v-5.7935A4.3591,4.3591,0,0,1,150.7593,367.2Z"/>
    <g id="plant">
      <path id="Path_123" data-name="Path 123" class="cls-5" d="M53.1121,240.1351a40.3584,40.3584,0,0,1,.782,5.3169c0,1.877-7.3678,10.3207-2.433,15.95s4.7788,7.1936,3.6838,11.8853-1.72,7.35,2.5022,11.2591a45.5456,45.5456,0,0,1,7.2084,9.7147c.0168.0444,4.4785,15.9632,3.4251,24.8451.2354.2354,2.08.1043,2.08.1043S70.0012,256.398,53.1121,240.1351Z"/>
      <path id="Path_124" data-name="Path 124" class="cls-5" d="M68.281,319.1066S72.8886,245.1,82.9,238.0627c-.3855.0511.5784,8.4437.685,9.1143.37,2.3277,1.39,4.4973,1.6336,6.9027a20.1766,20.1766,0,0,1-.2957,7.1909,6.3682,6.3682,0,0,1-1.7963,2.9644,7.0743,7.0743,0,0,0-1.4764,3.7294,17.52,17.52,0,0,0,.05,7.0251c.6256,2.511.9895,4.347.0673,6.8351a13.5425,13.5425,0,0,1-4.2669,5.852c-4.2932,3.4009-6.1692,18.74-6.5213,31.5363A19.0039,19.0039,0,0,1,68.281,319.1066Z"/>
      <path id="Path_125" data-name="Path 125" class="cls-5" d="M69.8058,317.9338s-20.8765-42.8087-33.309-51.84a13.556,13.556,0,0,1,0,7.8582c-1.4072,4.1052-.7032,13.37,6.8028,16.1852s6.5677,6.92,8.21,11.0253,7.74,3.0491,10.79,6.8021,5.9812,11.1424,5.9812,11.1424Z"/>
      <path id="Path_126" data-name="Path 126" class="cls-5" d="M66.6626,323.6083s24.2195-48.7237,38.6434-59.0021a15.1583,15.1583,0,0,0,0,8.9435c1.6322,4.6722.8169,15.2176-7.8915,18.4214s-7.62,7.8763-9.5246,12.5482-8.98,3.4708-12.5173,7.7425-6.94,12.6817-6.94,12.6817Z"/>
      <path id="Path_127" data-name="Path 127" class="cls-6" d="M75.4029,367.09H64.2673a9.9835,9.9835,0,0,1-9.9161-8.8268L49.79,319.1587H89.88l-4.5612,39.1042A9.9833,9.9833,0,0,1,75.4029,367.09Z"/>
      <path id="Path_2214" data-name="Path 2214" class="cls-7" d="M50.2188,316.9484H89.4514a1.797,1.797,0,0,1,1.797,1.797h0v2.3879a1.797,1.797,0,0,1-1.797,1.797H50.2188a1.7971,1.7971,0,0,1-1.797-1.7963v-2.3879a1.7969,1.7969,0,0,1,1.7963-1.7977Z"/>
    </g>
    <path id="Path_128" data-name="Path 128" class="cls-8" d="M90.2976,218.4093a4.9549,4.9549,0,1,1,4.7634-3.6238,4.9593,4.9593,0,0,1-4.7634,3.6238Zm-.0134-8.9031a3.951,3.951,0,0,0-3.7947,2.8867h0a3.939,3.939,0,1,0,3.795-2.8857Z"/>
    <g id="Group_36" data-name="Group 36">
      <g id="Group_27" data-name="Group 27">
        <path id="Path_130" data-name="Path 130" class="cls-6" d="M256.8912,57.1771a4.5663,4.5663,0,1,1,4.5666-4.5666A4.5716,4.5716,0,0,1,256.8912,57.1771Z"/>
      </g>
      <g id="Group_35" data-name="Group 35">
        <g id="Group_30" data-name="Group 30">
          <g id="Group_28" data-name="Group 28">
            <path id="Path_131" data-name="Path 131" class="cls-6" d="M278.2538,58.141a.7164.7164,0,0,1-.7161-.716V54.2679a.7164.7164,0,1,1,1.4328,0v3.1584A.7164.7164,0,0,1,278.2538,58.141Z"/>
          </g>
          <g id="Group_29" data-name="Group 29">
            <path id="Path_132" data-name="Path 132" class="cls-6" d="M278.2538,63.6688a.7164.7164,0,0,1-.7161-.716V59.7944a.7164.7164,0,1,1,1.4328,0v3.1584A.7164.7164,0,0,1,278.2538,63.6688Z"/>
          </g>
        </g>
        <g id="Group_34" data-name="Group 34">
          <g id="Group_32" data-name="Group 32">
            <g id="Group_31" data-name="Group 31">
              <path id="Path_133" data-name="Path 133" class="cls-6" d="M282.6882,59.3259h-2.8376a.7164.7164,0,1,1,0-1.4328h2.8376a.7164.7164,0,1,1,0,1.4328Z"/>
            </g>
          </g>
          <g id="Group_33" data-name="Group 33">
            <path id="Path_134" data-name="Path 134" class="cls-6" d="M276.6579,59.3259H273.82a.7164.7164,0,0,1-.716-.7167h0a.7157.7157,0,0,1,.7154-.7161h2.8382a.716.716,0,0,1,.716.7161h0a.7163.7163,0,0,1-.716.7167Z"/>
          </g>
        </g>
      </g>
    </g>
    <g id="Group_47" data-name="Group 47">
      <g id="Group_37" data-name="Group 37">
        <path id="Path_135" data-name="Path 135" class="cls-7" d="M387.9473,396.8822a4.7146,4.7146,0,1,1,4.4919-4.7086A4.61,4.61,0,0,1,387.9473,396.8822Z"/>
      </g>
      <g id="Group_38" data-name="Group 38">
        <path id="Path_136" data-name="Path 136" class="cls-9" d="M384.8656,371.0308a4.7137,4.7137,0,1,1,4.4926-4.7086A4.61,4.61,0,0,1,384.8656,371.0308Zm0-7.942a3.2357,3.2357,0,1,0,3.0834,3.2324A3.1641,3.1641,0,0,0,384.8656,363.0888Z"/>
      </g>
      <g id="Group_46" data-name="Group 46">
        <g id="Group_41" data-name="Group 41">
          <g id="Group_39" data-name="Group 39">
            <path id="Path_137" data-name="Path 137" class="cls-9" d="M405.882,372.0253a.7228.7228,0,0,1-.7063-.7389v-3.259a.7224.7224,0,0,1,.7045-.74h.0017a.7225.7225,0,0,1,.7064.7381v3.26a.7227.7227,0,0,1-.7052.74Z"/>
          </g>
          <g id="Group_40" data-name="Group 40">
            <path id="Path_138" data-name="Path 138" class="cls-9" d="M405.882,377.7266a.7228.7228,0,0,1-.7063-.7389v-3.2593a.7227.7227,0,0,1,.7052-.74h.001a.7227.7227,0,0,1,.7063.7388v3.259a.7226.7226,0,0,1-.7049.74Z"/>
          </g>
        </g>
        <g id="Group_45" data-name="Group 45">
          <g id="Group_43" data-name="Group 43">
            <g id="Group_42" data-name="Group 42">
              <path id="Path_139" data-name="Path 139" class="cls-9" d="M410.2445,373.2468H407.453a.7221.7221,0,0,1-.7063-.7375v-.0024a.7218.7218,0,0,1,.7032-.74h2.7946a.722.722,0,0,1,.7063.7374v.0025a.7224.7224,0,0,1-.7046.74Z"/>
            </g>
          </g>
          <g id="Group_44" data-name="Group 44">
            <path id="Path_140" data-name="Path 140" class="cls-9" d="M404.3114,373.2468H401.52a.7225.7225,0,0,1-.7063-.7382v-.0017a.722.722,0,0,1,.7038-.74h2.7939a.722.722,0,0,1,.7063.7374v.0025a.7224.7224,0,0,1-.7045.74Z"/>
          </g>
        </g>
      </g>
    </g>
    <path id="Path_141" data-name="Path 141" class="cls-6" d="M482.6459,211.7957a5.7088,5.7088,0,1,1,5.5129-7.1805h0a5.7135,5.7135,0,0,1-5.5129,7.1805Zm-.0028-10.326a4.6169,4.6169,0,1,0,4.4622,3.4278A4.6012,4.6012,0,0,0,482.6431,201.47Z"/>
    <path id="Path_142" data-name="Path 142" class="cls-7" d="M522.0478,220.1084a4.357,4.357,0,1,1,4.2171-5.48h0a4.3576,4.3576,0,0,1-3.0871,5.331A4.39,4.39,0,0,1,522.0478,220.1084Z"/>
    <path id="Path_143" data-name="Path 143" class="cls-3" d="M529.4751,48.5157c.0022-.0563.0022-.1145.0022-.1729A21.14,21.14,0,0,0,508.0878,27.464a21.45,21.45,0,0,0-18.9431,11.1772,10.8766,10.8766,0,0,0-6.0221-1.7951,10.4533,10.4533,0,0,0-10.6476,10.248c0,.0334,0,.0689.0017.1022a16.9834,16.9834,0,0,0-10.27,15.4263c0,9.397,7.9594,17.0161,17.7784,17.0161a18.5056,18.5056,0,0,0,2.2956-.1418H524.136c.2375-.0273.4755-.053.7138-.0727a11.9223,11.9223,0,0,0,2.4786-.2768v-.0766c8.51-1.0332,15.0688-7.5647,15.0688-15.47C542.398,56.3729,536.9168,50.2962,529.4751,48.5157Z"/>
    <path id="Path_143-2" data-name="Path 143" class="cls-3" d="M79.9179,138.5622c.0016-.0411.0016-.0837.0016-.1264A15.4483,15.4483,0,0,0,64.2884,123.178a15.6753,15.6753,0,0,0-13.8433,8.1681,7.9481,7.9481,0,0,0-4.4008-1.3119,7.6391,7.6391,0,0,0-7.7811,7.4891c0,.0244,0,.05.0012.0747a12.411,12.411,0,0,0-7.5051,11.2732c0,6.8673,5.8165,12.4352,12.9921,12.4352a13.5368,13.5368,0,0,0,1.6776-.1037H76.0162c.1735-.02.3475-.0387.5216-.0531a8.711,8.711,0,0,0,1.8114-.2023v-.0559c6.2189-.7551,11.012-5.5282,11.012-11.3052C89.3618,144.3041,85.3562,139.8633,79.9179,138.5622Z"/>
    <g id="carpet">
      <path id="Path_145" data-name="Path 145" class="cls-5" d="M182.22,420.675l24.1607-32.3542H356.036L334.69,420.675Z"/>
      <g id="Group_61" data-name="Group 61">
        <g id="Group_48" data-name="Group 48">
          <path id="Path_146" data-name="Path 146" class="cls-9" d="M212.1661,396.8822a.5645.5645,0,0,1-.4776-.8634h0l5.0044-7.9957a.5637.5637,0,1,1,.9552.5987l-5.0038,7.995A.5635.5635,0,0,1,212.1661,396.8822Z"/>
        </g>
        <g id="Group_49" data-name="Group 49">
          <path id="Path_147" data-name="Path 147" class="cls-9" d="M211.4756,411.2287a.5641.5641,0,0,1-.4776-.8634l13.983-22.3422a.5636.5636,0,0,1,.9557.5977l-.0006.0009L211.9539,410.964A.5654.5654,0,0,1,211.4756,411.2287Z"/>
        </g>
        <g id="Group_50" data-name="Group 50">
          <path id="Path_148" data-name="Path 148" class="cls-9" d="M230.3846,396.8822a.5641.5641,0,0,1-.4775-.8634l5.0045-7.9957a.5636.5636,0,1,1,.9551.5987l-5.0038,7.995A.5635.5635,0,0,1,230.3846,396.8822Z"/>
        </g>
        <g id="Group_51" data-name="Group 51">
          <path id="Path_149" data-name="Path 149" class="cls-9" d="M232.3915,411.2287a.5641.5641,0,0,1-.4776-.8634l13.9829-22.3422a.5639.5639,0,1,1,.9558.5986L232.8684,410.964A.5631.5631,0,0,1,232.3915,411.2287Z"/>
        </g>
        <g id="Group_52" data-name="Group 52">
          <path id="Path_150" data-name="Path 150" class="cls-9" d="M251.3005,396.8822a.5641.5641,0,0,1-.4775-.8634l5.0044-7.9957a.5637.5637,0,1,1,.9552.5987l-5.0038,7.995A.5641.5641,0,0,1,251.3005,396.8822Z"/>
        </g>
        <g id="Group_53" data-name="Group 53">
          <path id="Path_151" data-name="Path 151" class="cls-9" d="M253.8028,411.2287a.5641.5641,0,0,1-.4776-.8634l13.9829-22.3422a.5636.5636,0,0,1,.9558.5977l-.0006.0009L254.281,410.964A.5648.5648,0,0,1,253.8028,411.2287Z"/>
        </g>
        <g id="Group_54" data-name="Group 54">
          <path id="Path_152" data-name="Path 152" class="cls-9" d="M272.71,396.8822a.564.564,0,0,1-.4775-.8634l5.0044-7.9957a.5637.5637,0,1,1,.9552.5987l-5.0038,7.995A.5642.5642,0,0,1,272.71,396.8822Z"/>
        </g>
        <g id="Group_55" data-name="Group 55">
          <path id="Path_153" data-name="Path 153" class="cls-9" d="M274.719,411.2287a.5641.5641,0,0,1-.4776-.8634l13.983-22.3422a.5639.5639,0,0,1,.9558.5986L275.1966,410.964A.5631.5631,0,0,1,274.719,411.2287Z"/>
        </g>
        <g id="Group_56" data-name="Group 56">
          <path id="Path_154" data-name="Path 154" class="cls-9" d="M293.6277,396.8822a.5641.5641,0,0,1-.4776-.8634l5.0045-7.9957a.5637.5637,0,1,1,.9552.5987l-5.0038,7.995A.5642.5642,0,0,1,293.6277,396.8822Z"/>
        </g>
        <g id="Group_57" data-name="Group 57">
          <path id="Path_155" data-name="Path 155" class="cls-9" d="M295.6352,411.2287a.5641.5641,0,0,1-.4776-.8634l13.983-22.3422a.5639.5639,0,0,1,.9558.5986L296.1135,410.964A.565.565,0,0,1,295.6352,411.2287Z"/>
        </g>
        <g id="Group_58" data-name="Group 58">
          <path id="Path_156" data-name="Path 156" class="cls-9" d="M314.5439,396.8822a.5646.5646,0,0,1-.4776-.8634h0l5.0045-7.9957a.5637.5637,0,1,1,.9552.5987l-5.0042,7.995A.5634.5634,0,0,1,314.5439,396.8822Z"/>
        </g>
        <g id="Group_59" data-name="Group 59">
          <path id="Path_157" data-name="Path 157" class="cls-9" d="M316.5511,411.2287a.5641.5641,0,0,1-.4776-.8634l13.983-22.3422a.5639.5639,0,1,1,.9558.5986L317.0294,410.964A.5654.5654,0,0,1,316.5511,411.2287Z"/>
        </g>
        <g id="Group_60" data-name="Group 60">
          <path id="Path_158" data-name="Path 158" class="cls-9" d="M335.46,396.8822a.5645.5645,0,0,1-.4779-.8628l0-.0006,5.0045-7.9957a.564.564,0,0,1,.9559.5987h0l-5.0045,7.995A.5635.5635,0,0,1,335.46,396.8822Z"/>
        </g>
      </g>
    </g>
    <g id="HTML">
      <path id="Path_159" data-name="Path 159" class="cls-4" d="M396.3572,427.01,463.7,409.9732l9.3314,27.982s-67.0358,16.5767-67.7725,20.9553C405.5046,459.537,396.3572,427.01,396.3572,427.01Z"/>
      <path id="Path_160" data-name="Path 160" class="cls-8" d="M397.0831,423.3571l65.8315-18.8592,8.4444,29.1927-64.5041,23.0311Z"/>
    </g>
    <g id="computer">
      <path id="Path_2211" data-name="Path 2211" class="cls-6" d="M121.023,94.66H445.1917a6.8186,6.8186,0,0,1,6.8186,6.8186V330.0226a6.8186,6.8186,0,0,1-6.8186,6.8186H121.023a6.8186,6.8186,0,0,1-6.8186-6.8186V101.4788A6.8186,6.8186,0,0,1,121.023,94.66Z"/>
      <path id="Path_2210" data-name="Path 2210" class="cls-9" d="M128.4325,103.8966H438.3772a3.679,3.679,0,0,1,3.679,3.679h0V299.2508a3.679,3.679,0,0,1-3.679,3.6791H128.4325a3.6791,3.6791,0,0,1-3.679-3.6791h0V107.5756a3.6791,3.6791,0,0,1,3.679-3.679Z"/>
      <path id="Path_2209" data-name="Path 2209" class="cls-5" d="M176.29,195.723h49.5154a2.687,2.687,0,0,1,2.6856,2.6869v90.8a2.6869,2.6869,0,0,1-2.6869,2.6869H176.29a2.6869,2.6869,0,0,1-2.6868-2.6869h0v-90.8A2.6869,2.6869,0,0,1,176.29,195.723Z"/>
      <path id="Path_2208" data-name="Path 2208" class="cls-5" d="M176.29,129.1053H389.5344a2.6869,2.6869,0,0,1,2.6869,2.6869h0V174.27a2.6869,2.6869,0,0,1-2.6869,2.6869H176.29a2.6868,2.6868,0,0,1-2.6868-2.6862V131.7922A2.6869,2.6869,0,0,1,176.29,129.1053Z"/>
      <g id="Group_63" data-name="Group 63">
        <path id="Path_2213" data-name="Path 2213" class="cls-6" d="M253.48,313.4621h61.8272V368.324H253.48Z"/>
        <path id="Path_165" data-name="Path 165" class="cls-6" d="M347.0747,376.4187H219.1377s1.9365-14.39,64.0173-14.39S347.0747,376.4187,347.0747,376.4187Z"/>
      </g>
      <path id="Path_2207" data-name="Path 2207" class="cls-3" d="M126.7973,103.8966H439.9908a2.0657,2.0657,0,0,1,2.0658,2.0657h0V118.531H124.5776V106.1163a2.22,2.22,0,0,1,2.22-2.22Z"/>
      <circle id="Ellipse_1" data-name="Ellipse 1" class="cls-7" cx="137.405" cy="111.2136" r="3.9942"/>
      <circle id="Ellipse_2" data-name="Ellipse 2" class="cls-7" cx="153.3819" cy="111.2136" r="3.9942"/>
      <circle id="Ellipse_3" data-name="Ellipse 3" class="cls-7" cx="169.3589" cy="111.2136" r="3.9942"/>
    </g>
    <g id="girl">
      <g id="Object">
        <rect id="Rectangle_9" data-name="Rectangle 9" class="cls-7" x="252.8873" y="197.5994" width="139.3343" height="94.2971" rx="1.3453"/>
        <g id="Group_65" data-name="Group 65">
          <path id="Path_210" data-name="Path 210" class="cls-9" d="M313.613,258.873l-25.9046-10.7459V241.365L313.613,230.6v8.0939L297.87,244.7609l15.7429,6.0706Z"/>
          <path id="Path_211" data-name="Path 211" class="cls-9" d="M324.4382,227.4786h4.7351l-8.39,34.5383h-4.688Z"/>
          <path id="Path_212" data-name="Path 212" class="cls-9" d="M331.4966,250.83l15.7429-6.0706-15.7429-6.0673V230.6l25.9039,10.7653v6.7625L331.4966,258.873Z"/>
        </g>
      </g>
      <ellipse id="Ellipse_4" data-name="Ellipse 4" class="cls-4" cx="438.0328" cy="388.3665" rx="16.7246" ry="2.7501"/>
      <ellipse id="Ellipse_5" data-name="Ellipse 5" class="cls-4" cx="511.3272" cy="386.2097" rx="14.7027" ry="2.1572"/>
      <path id="Path_166" data-name="Path 166" class="cls-10" d="M481.1224,274.6176l13.6062-.6656a44.8129,44.8129,0,0,1,2.8154,15.13c0,8.21-.4708,6.2162-.5865,10.79s11.7279,28.0311,13.8393,37.6486c1.6907,7.7018,6.2667,24.35,8.022,30.6753a3.4481,3.4481,0,0,1-1.5256,3.866h0a3.447,3.447,0,0,1-4.37-.6433c-7.3624-8.2611-33.3682-38.778-36.2169-60.7244-3.3232-25.6-3.6743-26.5379-3.6743-26.5379Z"/>
      <path id="Path_167" data-name="Path 167" class="cls-6" d="M510.9138,369.1285s1.876,3.7941.1167,4.9668-9.7342,6.8028-9.8519,9.2661.3131,2.4625,5.3169,1.1727,15.56-5.9818,15.56-9.0309-3.9875-10.087-3.9875-10.087Z"/>
      <path id="Path_168" data-name="Path 168" class="cls-11" d="M483.4652,297.0735a5.6163,5.6163,0,0,1,1.193,4.4179c-1.0561,6.6491-3.4978,26.4205,2.93,36.1143.0552.0915-12.41-17.6536-12.0161-35.2315C475.8623,289.4534,480.8456,293.8417,483.4652,297.0735Z"/>
      <path id="Path_169" data-name="Path 169" class="cls-12" d="M454.4023,210.6985l8.4672,15.12,10.2578-7.648-11.3986-15.0232Z"/>
      <path id="Path_170" data-name="Path 170" class="cls-12" d="M443.5293,246.0934a8.8788,8.8788,0,0,0-10.9789-3.2287c-10.0756,4.4324-28.2837,12.2058-33.2916,12.791-4.4569.4688-18.414,1.5249-17.3586,8.21,1.2905,3.1664,2.7306,3.8034,13.9574,2.932a263.5985,263.5985,0,0,0,42.4469-7.1761,8.8832,8.8832,0,0,0,5.2254-13.5282Z"/>
      <path id="Path_171" data-name="Path 171" class="cls-13" d="M445.4258,260.6709l-6.8492,20.6065a1.342,1.342,0,0,0,.3145,1.3641c1.7152,1.7506,7.3654,6.6074,17.1363,6.4352a1.3454,1.3454,0,0,0,1.0466-.5361c1.11-1.467,3.8842-5.6213,4.8461-7.0681a1.3358,1.3358,0,0,0,.1759-1.0921l-3.5785-13.1962a1.0922,1.0922,0,0,1-.0256-.113l-2.0885-11.5877a1.3434,1.3434,0,0,0-1.56-1.0845l-.0513.01-7.8346,1.725a1.3427,1.3427,0,0,0-1.0426,1.129l-.4332,3.1651A1.361,1.361,0,0,1,445.4258,260.6709Z"/>
      <g id="Group_64" data-name="Group 64">
        <path id="Path_172" data-name="Path 172" class="cls-6" d="M443.6463,276.133l-.9605-.96a.4568.4568,0,0,0-.6461.646L443,276.78a.4571.4571,0,1,0,.646-.6468Z"/>
        <path id="Path_173" data-name="Path 173" class="cls-6" d="M443,284.902a.4569.4569,0,0,0,.6461-.6461l-.9605-.9606a.4571.4571,0,0,0-.6461.6468Z"/>
        <path id="Path_174" data-name="Path 174" class="cls-6" d="M447.4464,263.7305h0a.4577.4577,0,0,0-.646,0l-.9606.96a.4591.4591,0,0,0,0,.6464h0a.4576.4576,0,0,0,.6461,0l.96-.96A.4576.4576,0,0,0,447.4464,263.7305Z"/>
        <path id="Path_175" data-name="Path 175" class="cls-6" d="M447.4464,259.6694a.4577.4577,0,0,0-.646,0l-.9606.96a.4591.4591,0,0,0,0,.6461h0a.4578.4578,0,0,0,.6461,0l.96-.96A.4578.4578,0,0,0,447.4464,259.6694Z"/>
        <path id="Path_176" data-name="Path 176" class="cls-6" d="M443.6463,269.3982a.4578.4578,0,0,0,0-.6461l-.68-.68-.3225.9706.3568.3562A.4578.4578,0,0,0,443.6463,269.3982Z"/>
        <path id="Path_177" data-name="Path 177" class="cls-6" d="M443.9991,272.0733l-.9605-.96a.4569.4569,0,0,0-.6461.6461l.9606.9605a.457.457,0,1,0,.646-.6467Z"/>
        <path id="Path_178" data-name="Path 178" class="cls-6" d="M442.6858,279.2343a.4568.4568,0,0,0-.6461.646l.9605.96a.457.457,0,1,0,.6461-.6464Z"/>
        <path id="Path_179" data-name="Path 179" class="cls-6" d="M445.9155,257.2637l-.0088.0652a.4441.4441,0,0,0,.2271-.1143l.96-.9606a.4324.4324,0,0,0,.1043-.1725l-.24.0531A1.3431,1.3431,0,0,0,445.9155,257.2637Z"/>
        <path id="Path_180" data-name="Path 180" class="cls-6" d="M445.4867,272.7187a.46.46,0,0,0,.6467,0l.96-.9606a.4568.4568,0,1,0-.6461-.646l-.9605.96a.4537.4537,0,0,0-.0117.6451C445.4772,272.7193,445.48,272.7215,445.4867,272.7187Z"/>
        <path id="Path_181" data-name="Path 181" class="cls-6" d="M447.4464,267.7922a.459.459,0,0,0-.646,0l-.9606.9606a.459.459,0,0,0,0,.646h0a.4578.4578,0,0,0,.6461,0l.96-.96A.4585.4585,0,0,0,447.4464,267.7922Z"/>
        <path id="Path_182" data-name="Path 182" class="cls-6" d="M447.4464,279.2343a.4577.4577,0,0,0-.646,0l-.9606.96a.4591.4591,0,0,0,0,.6464h0a.4576.4576,0,0,0,.6461,0l.96-.96A.4576.4576,0,0,0,447.4464,279.2343Z"/>
        <path id="Path_183" data-name="Path 183" class="cls-6" d="M460.632,275.1732a.4585.4585,0,0,0-.6468,0l-.96.96a.4572.4572,0,1,0,.6461.6471l.96-.9605a.4488.4488,0,0,0,.1211-.3848l-.0356-.1321A.4517.4517,0,0,0,460.632,275.1732Z"/>
        <path id="Path_184" data-name="Path 184" class="cls-6" d="M446.8,283.2954l-.9606.9605a.4591.4591,0,0,0,0,.6461h0a.4578.4578,0,0,0,.6461,0l.96-.96a.457.457,0,0,0-.646-.6467Z"/>
        <path id="Path_185" data-name="Path 185" class="cls-6" d="M447.4464,275.1732a.4577.4577,0,0,0-.646,0l-.9606.96a.46.46,0,0,0,0,.6471h0a.4591.4591,0,0,0,.6461,0l.96-.9605A.4576.4576,0,0,0,447.4464,275.1732Z"/>
        <path id="Path_186" data-name="Path 186" class="cls-6" d="M447.0936,286.6155a.4577.4577,0,0,0-.646,0l-.5987.5987c.3027.1251.6054.25.9256.3672l.3191-.32a.4375.4375,0,0,0,.0527-.628A.0464.0464,0,0,0,447.0936,286.6155Z"/>
        <path id="Path_187" data-name="Path 187" class="cls-6" d="M456.1864,284.902a.4571.4571,0,0,0,.6468-.6461l-.96-.9606a.4571.4571,0,0,0-.6461.6468Z"/>
        <path id="Path_188" data-name="Path 188" class="cls-6" d="M459.6728,280.8405l.9605-.96a.4571.4571,0,0,0-.6468-.6461l-.96.96a.4568.4568,0,1,0,.6461.646Z"/>
        <path id="Path_189" data-name="Path 189" class="cls-6" d="M457.1853,272.0733l-.96-.96a.4569.4569,0,0,0-.6461.6461l.96.9605a.457.457,0,0,0,.646-.6467Z"/>
        <path id="Path_190" data-name="Path 190" class="cls-6" d="M456.2255,255.6079a.457.457,0,0,0-.6461.6465l.96.9605a.444.444,0,0,0,.196.1083l-.2646-1.47Z"/>
        <path id="Path_191" data-name="Path 191" class="cls-6" d="M460.632,283.2954a.46.46,0,0,0-.6468,0l-.96.9605a.453.453,0,0,0,.5476.7133c.3773-.5562.75-1.11,1.0937-1.621A.2713.2713,0,0,0,460.632,283.2954Z"/>
        <path id="Path_192" data-name="Path 192" class="cls-6" d="M459.32,272.7187l.5489-.5489-.2755-1.017-.92.9188a.4572.4572,0,0,0,.6461.6471Z"/>
        <path id="Path_193" data-name="Path 193" class="cls-6" d="M459.0267,269.3982a.4338.4338,0,0,0,.111.074l-.1705-.63A.4521.4521,0,0,0,459.0267,269.3982Z"/>
        <path id="Path_194" data-name="Path 194" class="cls-6" d="M456.1864,261.2757a.4571.4571,0,0,0,.6468-.6461l-.96-.96a.4569.4569,0,0,0-.6461.6461Z"/>
        <path id="Path_195" data-name="Path 195" class="cls-6" d="M455.2266,264.3769l.96.96a.4572.4572,0,1,0,.6468-.6464l-.96-.96a.4578.4578,0,0,0-.6461,0h0a.4567.4567,0,0,0-.0015.6465Z"/>
        <path id="Path_196" data-name="Path 196" class="cls-6" d="M457.1853,287.5761l-.96-.9606a.4569.4569,0,0,0-.6461.6461l.96.9605a.4568.4568,0,0,0,.646-.646Z"/>
        <path id="Path_197" data-name="Path 197" class="cls-6" d="M455.2266,279.8807l.96.96a.4572.4572,0,0,0,.6468-.6464l-.96-.96a.4578.4578,0,0,0-.6461,0A.5145.5145,0,0,0,455.2266,279.8807Z"/>
        <path id="Path_198" data-name="Path 198" class="cls-6" d="M455.2266,268.4383l.96.96a.4571.4571,0,1,0,.6468-.6461l-.96-.96a.457.457,0,0,0-.6464.6461Z"/>
        <path id="Path_199" data-name="Path 199" class="cls-6" d="M455.2266,275.82l.96.9605a.4575.4575,0,0,0,.6468-.6471l-.96-.96a.4575.4575,0,0,0-.6476.6465Z"/>
      </g>
      <path id="Path_200" data-name="Path 200" class="cls-10" d="M457.002,275.007l29.0475-.4688s8.6788,17.71-8.5621,35.1853c-4.9274,6.2163-10.3207,10.6743-17.5923,44.4511a251.3267,251.3267,0,0,1-8.2961,24.3582,3.6,3.6,0,0,1-3.2714,2.2072h0a3.6089,3.6089,0,0,1-3.6691-3.5479c0-.0257-.0006-.0513,0-.0769.0551-11.8857.42-49.2178,2.8046-62.4662C450.2921,298.9333,451.7974,282.3963,457.002,275.007Z"/>
      <path id="Path_201" data-name="Path 201" class="cls-8" d="M465.6788,273.3648l3.73,12.59a4.486,4.486,0,0,0,4.9191,3.1745c6.9686-.9753,21.0706-3.5408,21.99-8.3781-.004-.0222-1.5114-7.877-2.5285-8.546S465.6788,273.3648,465.6788,273.3648Z"/>
      <path id="Path_202" data-name="Path 202" class="cls-8" d="M445.7873,259.8217s3.2567,13.1633,9.8694,17.4484c-.0652.1477,5.2-8.664,5.2-8.664l-10.881-14.8429Z"/>
      <path id="Path_203" data-name="Path 203" class="cls-9" d="M450.0132,254.9067c.87,4.4267,3.4682,16.6076,6.2425,19.6533a1.9071,1.9071,0,0,0,1.5081.5973c1.8353-.0814,7.8225-.0221,11.4551.0236a1.9927,1.9927,0,0,0,1.8922-2.6849l-8.1484-22.3113a1.9991,1.9991,0,0,0-2.5638-1.1915q-.03.0109-.06.0228l-9.1076,3.66A1.9887,1.9887,0,0,0,450.0132,254.9067Z"/>
      <path id="Path_204" data-name="Path 204" class="cls-14" d="M450.2921,256.2924l.4345,2.0488s6.7443-1.6143,7.8783,0,6.1376,16.7923,6.1376,16.7923h3.7537l-4.7728-21.37-9.7712.68Z"/>
      <path id="Path_205" data-name="Path 205" class="cls-15" d="M455.44,212.6481l3.1833,5.5332,4.6748-4.504c1.4-1.35-.3914-3.4137-2.4047-2.771Z"/>
      <path id="Path_206" data-name="Path 206" class="cls-8" d="M449.834,193.0479a3.386,3.386,0,0,0-5.6976.2284,8.108,8.108,0,0,0-.75,7.6927c2.76,5.891,8.5917-4.8582,8.5917-4.8582Z"/>
      <ellipse id="Ellipse_6" data-name="Ellipse 6" class="cls-12" cx="455.9073" cy="204.532" rx="9.7732" ry="10.804"/>
      <path id="Path_207" data-name="Path 207" class="cls-15" d="M457.6582,200.1292c-2.8086-1.3725-5.889-2.8207-8.3176-2.96l-2.4551.9565s-.0895,1.0069-.0989,2.5332c1.11,1.772,3.1456,4.1011,6.0874,3.8229a40.9505,40.9505,0,0,1,8.1925.0068S462.2069,202.352,457.6582,200.1292Z"/>
      <path id="Path_208" data-name="Path 208" class="cls-16" d="M445.7873,198.0642c-.8939-4.4058,3.7652-9.4823,7.5956-12.54,5.325-4.2507,10.09.5092,18.7893-2.5331,8.55-2.9906,7.124-8.7,14.9892-11.6119,9.8714-3.6541,14.6219,4.4112,25.545,1.2669,9.5832-2.7578,11.6455-10.6116,17.1007-9.29,5.1857,1.2575,7.6244,9.3988,8.0226,14.3559.7954,9.9134-5.4484,21.06-13.09,22.3785-6.2754,1.0837-9.0538-5.23-14.7783-3.5885-6.004,1.7216-4.8,9.1994-12.8781,14.5668-.8846.5879-8.8376,5.7265-15.4113,2.9556-5.963-2.5137-7.35-10.0843-10.1341-9.5-2.1108.4426-1.4314,4.8192-5.0663,7.1782-2.8252,1.8333-7.079,1.6816-8.0886.004-1.1889-1.9756,2.43-5.5426,1.3322-6.76-.9175-1.0184-4.166-.2983-6.9357-1.2292C449.4919,202.614,445.9343,198.7876,445.7873,198.0642Z"/>
      <path id="Path_209" data-name="Path 209" class="cls-6" d="M444.6479,375.3414s.03,4.944-2.2934,5.2544-13.6792,1.8834-14.91,4.2279-.792,2.5459,4.8959,3.6541,19.5363,1.8044,19.9473-1.4421c.5044-3.9707.48-11.7064.48-11.7064Z"/>
      <path id="Path_213" data-name="Path 213" class="cls-12" d="M437.1277,217.3768s-26.141-5-33.8814-8.1662c-5.0449-1.8764-2.7579-3.9141-10.2649-6.1779-3.5179-.2691-4.8955-2.5688-6.89-2.4511s-.0114,4.2507,1.9823,5.0717,4.1472,2.2678,4.1472,3.3232-2.58,6.9195,2.8147,9.2654c2.932,1.6416,36.5777,17.39,36.5777,17.39h0C440.9406,238.733,446.8162,218.9737,437.1277,217.3768Z"/>
      <path id="Path_214" data-name="Path 214" class="cls-13" d="M429.9607,236.1547c-.0693-3.7987.0181-17.5365,4.838-19.1125a1.168,1.168,0,0,1,.639-.0074c2.6983.6474,23.2133,4.4112,32.0387,2.8019,7.156.821,3.9945,15.9982,3.9945,15.9982l-26.8227,3.4009-6.3191.4688-7.4213-2.2954A1.3379,1.3379,0,0,1,429.9607,236.1547Z"/>
      <g id="Group_66" data-name="Group 66">
        <path id="Path_215" data-name="Path 215" class="cls-6" d="M434.7432,221.7043l-.96.9605a.4569.4569,0,0,0,.6461.6461l.96-.96a.4569.4569,0,0,0-.6461-.6461Z"/>
        <path id="Path_216" data-name="Path 216" class="cls-6" d="M459.54,221.7043a.4578.4578,0,0,0-.6461,0l-.9606.9605a.4569.4569,0,0,0,.6461.6461l.9606-.96A.4578.4578,0,0,0,459.54,221.7043Z"/>
        <path id="Path_217" data-name="Path 217" class="cls-6" d="M458.5417,233.147l-.96.96a.4571.4571,0,1,0,.6467.6461l.96-.96a.4569.4569,0,0,0-.6461-.6461Z"/>
        <path id="Path_218" data-name="Path 218" class="cls-6" d="M459.54,229.8271a.4578.4578,0,0,0-.6461,0l-.9606.96a.4569.4569,0,0,0,.6461.6461l.9606-.96A.4578.4578,0,0,0,459.54,229.8271Z"/>
        <path id="Path_219" data-name="Path 219" class="cls-6" d="M459.54,225.7657a.4578.4578,0,0,0-.6461,0l-.9606.96a.4571.4571,0,0,0,.6461.6467l.9606-.96A.4578.4578,0,0,0,459.54,225.7657Z"/>
        <path id="Path_220" data-name="Path 220" class="cls-6" d="M454.1335,226.4121l.9606.9606a.4571.4571,0,1,0,.646-.6468l-.96-.96a.4569.4569,0,1,0-.6461.6461Z"/>
        <path id="Path_221" data-name="Path 221" class="cls-6" d="M447.5789,233.147l-.96.96a.4569.4569,0,0,0,.6461.6461l.9605-.96a.4569.4569,0,0,0-.6461-.6461Z"/>
        <path id="Path_222" data-name="Path 222" class="cls-6" d="M448.5775,229.8271a.4578.4578,0,0,0-.6461,0l-.9605.96a.4569.4569,0,0,0,.6461.6461l.96-.96A.4591.4591,0,0,0,448.5775,229.8271Z"/>
        <path id="Path_223" data-name="Path 223" class="cls-6" d="M454.1335,230.4722l.9606.96a.4568.4568,0,0,0,.646-.6461l-.96-.96a.4569.4569,0,1,0-.6461.6461Z"/>
        <path id="Path_224" data-name="Path 224" class="cls-6" d="M455.0951,223.3112a.4568.4568,0,0,0,.6461-.646l-.9606-.9606a.4568.4568,0,1,0-.646.6461Z"/>
        <path id="Path_225" data-name="Path 225" class="cls-6" d="M455.4469,234.7533a.4568.4568,0,0,0,.646-.6461l-.96-.96a.4568.4568,0,1,0-.6461.646Z"/>
        <path id="Path_226" data-name="Path 226" class="cls-6" d="M435.3906,225.7657a.4577.4577,0,0,0-.646,0l-.96.96a.4571.4571,0,0,0,.6461.6467l.96-.96A.4578.4578,0,0,0,435.3906,225.7657Z"/>
        <path id="Path_227" data-name="Path 227" class="cls-6" d="M434.078,219.25l.96-.96a.457.457,0,0,0-.646-.6467l-.96.96a.4569.4569,0,0,0,.6461.6461Z"/>
        <path id="Path_228" data-name="Path 228" class="cls-6" d="M431.5905,223.3112a.4577.4577,0,0,0,0-.646l-.3363-.3364q-.1373.4978-.2559,1.0191A.4529.4529,0,0,0,431.5905,223.3112Z"/>
        <path id="Path_229" data-name="Path 229" class="cls-6" d="M435.3906,229.8271a.4577.4577,0,0,0-.646,0l-.96.96a.4569.4569,0,0,0,.6461.6461l.96-.96A.4578.4578,0,0,0,435.3906,229.8271Z"/>
        <path id="Path_230" data-name="Path 230" class="cls-6" d="M434.3914,233.147l-.96.96a.4568.4568,0,1,0,.646.6461l.96-.96a.4569.4569,0,0,0-.6461-.6461Z"/>
        <path id="Path_231" data-name="Path 231" class="cls-6" d="M430.3915,237.092a1.324,1.324,0,0,0,.3663.2445l-.1268-.1274A.4427.4427,0,0,0,430.3915,237.092Z"/>
        <path id="Path_232" data-name="Path 232" class="cls-6" d="M431.5905,227.3723a.4583.4583,0,0,0,0-.6467l-.96-.96a.4494.4494,0,0,0-.076-.05c-.0565.37-.1062.7422-.1523,1.1145l.5421.5429A.4591.4591,0,0,0,431.5905,227.3723Z"/>
        <path id="Path_233" data-name="Path 233" class="cls-6" d="M431.9433,234.7533a.4578.4578,0,0,0,0-.6461l-.96-.96a.4571.4571,0,1,0-.6468.646l.96.9606A.4578.4578,0,0,0,431.9433,234.7533Z"/>
        <path id="Path_234" data-name="Path 234" class="cls-6" d="M430.9445,231.4331a.4568.4568,0,1,0,.646-.6461l-.96-.96a.4569.4569,0,0,0-.5079-.0922q-.0292.417-.0525.8243Z"/>
        <path id="Path_235" data-name="Path 235" class="cls-6" d="M435.3906,237.2081a.4577.4577,0,0,0-.646,0l-.96.96a.4116.4116,0,0,0-.072.1083l.9592.297.7187-.7194A.4576.4576,0,0,0,435.3906,237.2081Z"/>
        <path id="Path_236" data-name="Path 236" class="cls-6" d="M468.28,223.3112a.457.457,0,0,0,.6467-.646l-.9605-.9606a.4569.4569,0,0,0-.6461.6461Z"/>
        <path id="Path_237" data-name="Path 237" class="cls-6" d="M467.6739,233.147a.4578.4578,0,0,0,0,.6461l.96.96a.4569.4569,0,0,0,.6461-.6461l-.96-.96A.459.459,0,0,0,467.6739,233.147Z"/>
        <path id="Path_238" data-name="Path 238" class="cls-6" d="M468.28,231.4334a.4571.4571,0,0,0,.6467-.6461l-.9605-.96a.4569.4569,0,0,0-.6461.6461Z"/>
        <path id="Path_239" data-name="Path 239" class="cls-6" d="M467.32,226.4121l.96.9606a.4573.4573,0,1,0,.6467-.6468l-.9605-.96a.4574.4574,0,0,0-.6472.6466Z"/>
        <path id="Path_240" data-name="Path 240" class="cls-6" d="M459.54,237.2081a.4578.4578,0,0,0-.6461,0l-.2533.2532.9841-.1248A.4422.4422,0,0,0,459.54,237.2081Z"/>
        <path id="Path_241" data-name="Path 241" class="cls-6" d="M471.1205,223.3112a.45.45,0,0,0,.2983.1282c-.0921-.264-.1913-.522-.3027-.7658A.457.457,0,0,0,471.1205,223.3112Z"/>
        <path id="Path_242" data-name="Path 242" class="cls-6" d="M471.4141,234.7536l.2963-.2963c.0626-.4036.1292-.8832.1921-1.4146a.4457.4457,0,0,0-.1746.1043l-.96.96a.4569.4569,0,0,0,.6461.6461Z"/>
        <path id="Path_243" data-name="Path 243" class="cls-6" d="M454.1335,237.2081a.4593.4593,0,0,0,0,.6461l.1584.1584,1.1466-.1457-.6589-.6588A.4578.4578,0,0,0,454.1335,237.2081Z"/>
        <path id="Path_244" data-name="Path 244" class="cls-6" d="M471.1205,226.7259a.4571.4571,0,1,0,.6461.6468l.3319-.3327c-.0289-.3941-.0672-.7866-.12-1.1714Z"/>
        <path id="Path_245" data-name="Path 245" class="cls-6" d="M471.1205,230.787a.4569.4569,0,1,0,.6461.6461l.3171-.3172c.03-.4318.0532-.8791.0673-1.3355a.4186.4186,0,0,0-.07.0464Z"/>
        <path id="Path_246" data-name="Path 246" class="cls-6" d="M443.1708,226.4121l.9605.9606a.4571.4571,0,0,0,.6461-.6468l-.9606-.96a.4568.4568,0,1,0-.646.6461Z"/>
        <path id="Path_247" data-name="Path 247" class="cls-6" d="M446.6177,219.25a.4578.4578,0,0,0,.6461,0l.19-.19q-.4888-.0656-.9692-.1322A.4547.4547,0,0,0,446.6177,219.25Z"/>
        <path id="Path_248" data-name="Path 248" class="cls-6" d="M448.5775,237.8545a.4569.4569,0,1,0-.6461-.6461l-.9605.96a.4578.4578,0,0,0,0,.6461.4465.4465,0,0,0,.1725.1043l.3915-.05a.4369.4369,0,0,0,.0821-.0545Z"/>
        <path id="Path_249" data-name="Path 249" class="cls-6" d="M445.13,219.25a.458.458,0,0,0,.0948-.5045q-.7486-.1089-1.4636-.22l.7221.7228A.4584.4584,0,0,0,445.13,219.25Z"/>
        <path id="Path_250" data-name="Path 250" class="cls-6" d="M448.5775,221.7043a.4578.4578,0,0,0-.6461,0l-.9605.9605a.4569.4569,0,0,0,.6461.6461l.96-.96A.4591.4591,0,0,0,448.5775,221.7043Z"/>
        <path id="Path_251" data-name="Path 251" class="cls-6" d="M448.5775,225.7657a.4578.4578,0,0,0-.6461,0l-.9605.96a.4571.4571,0,0,0,.6461.6467l.96-.96A.4591.4591,0,0,0,448.5775,225.7657Z"/>
        <path id="Path_252" data-name="Path 252" class="cls-6" d="M444.4828,234.7533a.4571.4571,0,0,0,.6467-.6461l-.9605-.96a.4568.4568,0,0,0-.6461.646Z"/>
        <path id="Path_253" data-name="Path 253" class="cls-6" d="M444.1313,238.815a.4569.4569,0,0,0,.6461-.6461l-.9605-.96a.4569.4569,0,1,0-.6461.6461Z"/>
        <path id="Path_254" data-name="Path 254" class="cls-6" d="M443.1708,230.4722l.9605.96a.4569.4569,0,0,0,.6461-.6461l-.9606-.96a.4568.4568,0,1,0-.646.6461Z"/>
        <path id="Path_255" data-name="Path 255" class="cls-6" d="M444.1313,223.3112a.4568.4568,0,0,0,.6461-.646l-.9605-.9606a.4569.4569,0,1,0-.6461.6461Z"/>
      </g>
      <path id="Path_256" data-name="Path 256" class="cls-8" d="M431.2643,237.5192s2.4121-2.8884,8.5607-4.1472c5.6708-1.1607,10.8663-4.3167,11.7441-3.4379,6.2694,6.2687-13.8407,9.5852-13.8407,9.5852Z"/>
      <g id="Group_69" data-name="Group 69">
        <path id="Path_257" data-name="Path 257" class="cls-17" d="M444.0318,233.7958l-13.9332,7.87a1.9732,1.9732,0,0,0-.9895,1.9722c.553,4.1963,2.7488,16.9876,9.1117,18.26.1167,0,28.7344-7.39,32.9569-12.4325.2354.1183-14.0556-23.247-14.0556-23.247Z"/>
        <g id="Group_68" data-name="Group 68">
          <path id="Path_258" data-name="Path 258" class="cls-13" d="M497.9183,246.5343c-4.3173-3.8028-18.9793-20.69-24.7913-28.3638-1.131-1.4932-2.928-1.0237-10.7068,3.2287-6.0585,3.3125-12.2391,8.814-18.3884,12.3969l-13.9332,7.87a1.9682,1.9682,0,0,0-.9888,1.9729c.4984,3.7873,2.3358,14.5722,7.3655,17.5769a3.8675,3.8675,0,0,0,2.97.37c3.2606-.8613,12.4372-3.3881,20.1729-6.2243l.0068.004c.4224,2.27.9349,4.4415,1.5067,6.5025a78.6841,78.6841,0,0,0,10.0463,22.2632,1.3348,1.3348,0,0,0,.9841.5872c22.9371,2.1121,41.8247-26.1026,41.8247-26.1026S502.8441,250.8735,497.9183,246.5343Z"/>
          <g id="Group_67" data-name="Group 67">
            <path id="Path_259" data-name="Path 259" class="cls-6" d="M472.6124,239.4016l.9606.9565a.4559.4559,0,0,0,.646-.6434l-.96-.9565a.4591.4591,0,0,0-.6461,0,.4545.4545,0,0,0-.0008.6426Z"/>
            <path id="Path_260" data-name="Path 260" class="cls-6" d="M472.6124,243.4462l.9606.9565a.4561.4561,0,0,0,.646-.6441l-.96-.9558a.4591.4591,0,0,0-.6461,0,.4545.4545,0,0,0-.0008.6426Z"/>
            <path id="Path_261" data-name="Path 261" class="cls-6" d="M472.6124,235.3576l.9606.9559a.4559.4559,0,0,0,.646-.6434l-.96-.9565a.46.46,0,0,0-.6461,0,.4554.4554,0,0,0,0,.644Z"/>
            <path id="Path_262" data-name="Path 262" class="cls-6" d="M472.6124,250.7972l.9606.9558a.4559.4559,0,0,0,.646-.6434l-.96-.9558a.4591.4591,0,0,0-.6461,0,.4545.4545,0,0,0-.0008.6426Z"/>
            <path id="Path_263" data-name="Path 263" class="cls-6" d="M472.6124,258.8854l.9606.9565a.4559.4559,0,1,0,.646-.6434l-.96-.9565a.46.46,0,0,0-.6461,0,.4545.4545,0,0,0-.0008.6426Z"/>
            <path id="Path_264" data-name="Path 264" class="cls-6" d="M472.6124,254.8415l.9606.9558a.4559.4559,0,0,0,.646-.6434l-.96-.9565a.46.46,0,0,0-.6461,0,.4554.4554,0,0,0,0,.644Z"/>
            <path id="Path_265" data-name="Path 265" class="cls-6" d="M472.6124,228.0066l.9606.9559a.4559.4559,0,0,0,.646-.6434l-.96-.9565a.4561.4561,0,1,0-.6461.644Z"/>
            <path id="Path_266" data-name="Path 266" class="cls-6" d="M472.6124,266.2364l.9606.9565a.4559.4559,0,1,0,.646-.6434l-.96-.9565a.4591.4591,0,0,0-.6461,0,.4545.4545,0,0,0-.0008.6426Z"/>
            <path id="Path_267" data-name="Path 267" class="cls-6" d="M501.2086,255.7973l.9605-.9558a.4564.4564,0,0,0-.6467-.6441l-.96.9565a.4544.4544,0,0,0-.0008.6426l.0008.0008A.4587.4587,0,0,0,501.2086,255.7973Z"/>
            <path id="Path_268" data-name="Path 268" class="cls-6" d="M473.573,220.8742a.4558.4558,0,0,0,.646-.6433l-.96-.9565a.4591.4591,0,0,0-.6461,0,.4544.4544,0,0,0-.0008.6425l.0008.0008Z"/>
            <path id="Path_269" data-name="Path 269" class="cls-6" d="M478.02,242.8035a.4591.4591,0,0,0-.6461,0l-.9605.9558a.4554.4554,0,0,0,0,.644h0a.46.46,0,0,0,.6461,0l.96-.9565A.4558.4558,0,0,0,478.02,242.8035Z"/>
            <path id="Path_270" data-name="Path 270" class="cls-6" d="M478.02,238.7579a.4591.4591,0,0,0-.6461,0l-.9605.9565a.4543.4543,0,0,0-.0008.6425l.0008.0008a.46.46,0,0,0,.6461,0l.96-.9565A.4557.4557,0,0,0,478.02,238.7579Z"/>
            <path id="Path_271" data-name="Path 271" class="cls-6" d="M472.6124,223.9624l.9606.9565a.4561.4561,0,0,0,.646-.6441l-.96-.9558a.4591.4591,0,0,0-.6461,0,.4544.4544,0,0,0-.0008.6425Z"/>
            <path id="Path_272" data-name="Path 272" class="cls-6" d="M478.02,250.1535a.4591.4591,0,0,0-.6461,0l-.9605.9558a.4544.4544,0,0,0-.0008.6426l.0008.0008a.4591.4591,0,0,0,.6461,0l.96-.9559A.4557.4557,0,0,0,478.02,250.1535Z"/>
            <path id="Path_273" data-name="Path 273" class="cls-6" d="M476.4125,224.9189a.46.46,0,0,0,.6461,0l.7456-.743c-.196-.2378-.3914-.4742-.5825-.7063l-.81.8055A.4555.4555,0,0,0,476.4125,224.9189Z"/>
            <path id="Path_274" data-name="Path 274" class="cls-6" d="M478.02,227.3626a.46.46,0,0,0-.6461,0l-.9605.9565a.4544.4544,0,0,0-.0008.6426l.0008.0008a.4593.4593,0,0,0,.6461,0l.96-.9559A.4567.4567,0,0,0,478.02,227.3626Z"/>
            <path id="Path_275" data-name="Path 275" class="cls-6" d="M497.4085,269.6376a.4591.4591,0,0,0-.6461,0,.4544.4544,0,0,0-.0008.6426l.0008.0008.96.9565a.4563.4563,0,0,0,.6467-.644Z"/>
            <path id="Path_276" data-name="Path 276" class="cls-6" d="M472.6124,270.281l.9606.9565a.4561.4561,0,0,0,.646-.644l-.96-.9559a.4591.4591,0,0,0-.6461,0,.4545.4545,0,0,0-.0008.6426Z"/>
            <path id="Path_277" data-name="Path 277" class="cls-6" d="M497.7219,255.7973a.4562.4562,0,0,0,.6468-.6434l-.96-.9565a.46.46,0,0,0-.6461,0,.4554.4554,0,0,0,0,.644h0Z"/>
            <path id="Path_278" data-name="Path 278" class="cls-6" d="M498.369,266.55l-.9605-.9565a.4591.4591,0,0,0-.6461,0,.4545.4545,0,0,0-.0008.6426l.0008.0008.96.9565a.4611.4611,0,0,0,.6467,0A.468.468,0,0,0,498.369,266.55Z"/>
            <path id="Path_279" data-name="Path 279" class="cls-6" d="M498.369,274.6381l-.9605-.9565a.46.46,0,0,0-.6461,0,.4554.4554,0,0,0,0,.644h0l.96.9559a.4493.4493,0,0,0,.2324.1156q.2751-.2126.5455-.4264A.452.452,0,0,0,498.369,274.6381Z"/>
            <path id="Path_280" data-name="Path 280" class="cls-6" d="M498.72,262.5049l-.96-.9565a.46.46,0,0,0-.6461,0,.4544.4544,0,0,0-.0008.6426l.0008.0008.96.9565a.459.459,0,0,0,.646,0,.4543.4543,0,0,0,.0008-.6426Z"/>
            <path id="Path_281" data-name="Path 281" class="cls-6" d="M500.5622,259.8419a.46.46,0,0,0,.6461,0l.96-.9565a.4558.4558,0,0,0,0-.6434.4612.4612,0,0,0-.6468,0l-.96.9565a.4207.4207,0,0,0-.0956.6064A.0837.0837,0,0,0,500.5622,259.8419Z"/>
            <path id="Path_282" data-name="Path 282" class="cls-6" d="M497.4085,250.1535a.4591.4591,0,0,0-.6461,0,.4543.4543,0,0,0-.0008.6425l.0008.0008.96.9559a.4561.4561,0,0,0,.6467-.6434Z"/>
            <path id="Path_283" data-name="Path 283" class="cls-6" d="M496.7614,258.8854l.96.9565a.4611.4611,0,0,0,.6467,0,.4556.4556,0,0,0,0-.6434l-.96-.9565a.46.46,0,0,0-.6461,0A.4772.4772,0,0,0,496.7614,258.8854Z"/>
            <path id="Path_284" data-name="Path 284" class="cls-6" d="M473.9254,278.5875a.4559.4559,0,1,0,.6461-.6434l-.9605-.9565a.46.46,0,0,0-.6461,0,.4554.4554,0,0,0,0,.644h0Z"/>
            <path id="Path_285" data-name="Path 285" class="cls-6" d="M474.5718,262.5049l-.96-.9575a.46.46,0,0,0-.6461,0,.4545.4545,0,0,0-.0008.6426l.0008.0008.9605.9565a.4553.4553,0,1,0,.6454-.6424Z"/>
            <path id="Path_286" data-name="Path 286" class="cls-6" d="M485.7993,281.0322a.4547.4547,0,0,0,0,.6431l0,0,.5583.557q.4574-.1854.9081-.3817l-.8217-.819A.46.46,0,0,0,485.7993,281.0322Z"/>
            <path id="Path_287" data-name="Path 287" class="cls-6" d="M472.6124,274.3256l.9606.9559a.4559.4559,0,0,0,.646-.6434l-.96-.9565a.4561.4561,0,1,0-.6461.644Z"/>
            <path id="Path_288" data-name="Path 288" class="cls-6" d="M474.5718,247.065l-.96-.9558a.4591.4591,0,0,0-.6461,0,.4545.4545,0,0,0-.0008.6426l.0008.0008.9606.9565a.4561.4561,0,0,0,.646-.6441Z"/>
            <path id="Path_289" data-name="Path 289" class="cls-6" d="M473.573,282.6321a.4559.4559,0,0,0,.646-.6434l-.96-.9565a.4606.4606,0,0,0-.6461,0,.4545.4545,0,0,0-.0008.6426l.0008.0008Z"/>
            <path id="Path_290" data-name="Path 290" class="cls-6" d="M474.5718,231.6258l-.96-.9558a.4591.4591,0,0,0-.6461,0,.4545.4545,0,0,0-.0008.6426l.0008.0008.9606.9565a.4561.4561,0,0,0,.646-.6441Z"/>
            <path id="Path_291" data-name="Path 291" class="cls-6" d="M478.02,234.7136a.46.46,0,0,0-.6461,0l-.9605.9565a.4544.4544,0,0,0-.0008.6426l.0008.0008a.4593.4593,0,0,0,.6461,0l.96-.9559A.4564.4564,0,0,0,478.02,234.7136Z"/>
            <path id="Path_292" data-name="Path 292" class="cls-6" d="M489.5994,240.3581a.46.46,0,0,0,.6461,0l.8485-.8459c-.2018-.223-.4062-.4466-.6134-.6757l-.8815.8778a.4544.4544,0,0,0-.0008.6426Z"/>
            <path id="Path_293" data-name="Path 293" class="cls-6" d="M491.2057,242.8035a.4591.4591,0,0,0-.6461,0l-.96.9558a.4554.4554,0,0,0,0,.644h0a.46.46,0,0,0,.646,0l.96-.9565a.4544.4544,0,0,0,.0008-.6426Z"/>
            <path id="Path_294" data-name="Path 294" class="cls-6" d="M491.2057,250.1535a.4591.4591,0,0,0-.6461,0l-.96.9558a.4543.4543,0,0,0-.0008.6426l.0008.0008a.459.459,0,0,0,.646,0l.96-.9559a.4543.4543,0,0,0,.0008-.6425Z"/>
            <path id="Path_295" data-name="Path 295" class="cls-6" d="M478.02,254.1974a.46.46,0,0,0-.6461,0l-.9605.9565a.4544.4544,0,0,0-.0008.6426l.0008.0008a.4591.4591,0,0,0,.6461,0l.96-.9558A.4568.4568,0,0,0,478.02,254.1974Z"/>
            <path id="Path_296" data-name="Path 296" class="cls-6" d="M485.7993,239.4016l.96.9565a.46.46,0,0,0,.646,0,.4543.4543,0,0,0,.0008-.6426l-.0008-.0008-.96-.9565a.4559.4559,0,0,0-.6464.643Z"/>
            <path id="Path_297" data-name="Path 297" class="cls-6" d="M485.7993,250.7972l.96.9558a.459.459,0,0,0,.646,0,.4543.4543,0,0,0,.0008-.6426l-.0008-.0008-.96-.9558a.4559.4559,0,0,0-.6464.6431Z"/>
            <path id="Path_298" data-name="Path 298" class="cls-6" d="M485.7993,243.4462l.96.9565a.46.46,0,0,0,.646,0,.4554.4554,0,0,0,0-.644h0l-.9608-.9551a.4553.4553,0,1,0-.6451.6427Z"/>
            <path id="Path_299" data-name="Path 299" class="cls-6" d="M486.7592,236.3135a.4591.4591,0,0,0,.646,0,.4543.4543,0,0,0,.0008-.6426l-.0008-.0008-.96-.9565a.46.46,0,0,0-.6464,0,.4554.4554,0,0,0,0,.644h0Z"/>
            <path id="Path_300" data-name="Path 300" class="cls-6" d="M489.2466,263.1483a.4591.4591,0,0,0,.6461,0l.96-.9565a.4543.4543,0,0,0,.0008-.6426l-.0008-.0008a.46.46,0,0,0-.646,0l-.96.9565a.4544.4544,0,0,0-.0008.6426Z"/>
            <path id="Path_301" data-name="Path 301" class="cls-6" d="M489.893,247.7091l.96-.9565a.4545.4545,0,0,0,.0008-.6426l-.0008-.0008a.4591.4591,0,0,0-.6461,0l-.96.9558a.4554.4554,0,0,0,0,.644h0A.46.46,0,0,0,489.893,247.7091Z"/>
            <path id="Path_302" data-name="Path 302" class="cls-6" d="M491.2057,258.242a.46.46,0,0,0-.6461,0l-.96.9565a.4543.4543,0,0,0-.0008.6426l.0008.0008a.46.46,0,0,0,.646,0l.96-.9565a.4544.4544,0,0,0,.0008-.6426Z"/>
            <path id="Path_303" data-name="Path 303" class="cls-6" d="M485.7993,254.8415l.96.9558a.459.459,0,0,0,.646,0,.4543.4543,0,0,0,.0008-.6426l-.0008-.0008-.96-.9565a.46.46,0,0,0-.6464,0,.4553.4553,0,0,0,0,.644Z"/>
            <path id="Path_304" data-name="Path 304" class="cls-6" d="M489.2466,278.5875a.4591.4591,0,0,0,.6461,0l.96-.9558a.4554.4554,0,0,0,0-.644h0a.46.46,0,0,0-.646,0l-.96.9565a.4544.4544,0,0,0-.0008.6426Z"/>
            <path id="Path_305" data-name="Path 305" class="cls-6" d="M491.2057,273.6816a.46.46,0,0,0-.6461,0l-.96.9565a.4543.4543,0,0,0-.0009.6425l.0009.0009a.4591.4591,0,0,0,.646,0l.96-.9559a.4554.4554,0,0,0,0-.644Z"/>
            <path id="Path_306" data-name="Path 306" class="cls-6" d="M491.2057,265.593a.4591.4591,0,0,0-.6461,0l-.96.9565a.4543.4543,0,0,0-.0008.6426l.0008.0008a.46.46,0,0,0,.646,0l.96-.9565a.4544.4544,0,0,0,.0008-.6426Z"/>
            <path id="Path_307" data-name="Path 307" class="cls-6" d="M491.2057,269.6376a.4591.4591,0,0,0-.6461,0l-.96.9559a.4554.4554,0,0,0,0,.644h0a.46.46,0,0,0,.646,0l.96-.9565a.4544.4544,0,0,0,.0008-.6426Z"/>
            <path id="Path_308" data-name="Path 308" class="cls-6" d="M491.2057,254.1974a.46.46,0,0,0-.6461,0l-.96.9565a.4543.4543,0,0,0-.0008.6426l.0008.0008a.459.459,0,0,0,.646,0l.96-.9558a.4554.4554,0,0,0,0-.644Z"/>
            <path id="Path_309" data-name="Path 309" class="cls-6" d="M485.7993,266.2364l.96.9565a.46.46,0,0,0,.646,0,.4543.4543,0,0,0,.0008-.6426l-.0008-.0008-.96-.9565a.4559.4559,0,0,0-.6464.6431Z"/>
            <path id="Path_310" data-name="Path 310" class="cls-6" d="M476.06,263.1483a.4591.4591,0,0,0,.6461,0l.96-.9565a.4543.4543,0,0,0,.0008-.6426l-.0008-.0008a.46.46,0,0,0-.646,0l-.9606.9565A.4558.4558,0,0,0,476.06,263.1483Z"/>
            <path id="Path_311" data-name="Path 311" class="cls-6" d="M476.06,278.5875a.4591.4591,0,0,0,.6461,0l.96-.9558a.4554.4554,0,0,0,0-.644h0a.46.46,0,0,0-.646,0l-.9606.9565A.4558.4558,0,0,0,476.06,278.5875Z"/>
            <path id="Path_312" data-name="Path 312" class="cls-6" d="M478.02,273.6816a.46.46,0,0,0-.6461,0l-.9605.9565a.4543.4543,0,0,0-.0008.6425l.0008.0009a.4593.4593,0,0,0,.6461,0l.96-.9559A.4564.4564,0,0,0,478.02,273.6816Z"/>
            <path id="Path_313" data-name="Path 313" class="cls-6" d="M478.02,269.6376a.4591.4591,0,0,0-.6461,0l-.9605.9559a.4554.4554,0,0,0,0,.644h0a.46.46,0,0,0,.6461,0l.96-.9565A.4558.4558,0,0,0,478.02,269.6376Z"/>
            <path id="Path_314" data-name="Path 314" class="cls-6" d="M478.02,258.242a.46.46,0,0,0-.6461,0l-.9605.9565a.4544.4544,0,0,0-.0008.6426l.0008.0008a.46.46,0,0,0,.6461,0l.96-.9565A.4558.4558,0,0,0,478.02,258.242Z"/>
            <path id="Path_315" data-name="Path 315" class="cls-6" d="M478.02,265.593a.4591.4591,0,0,0-.6461,0l-.9605.9565a.4544.4544,0,0,0-.0008.6426l.0008.0008a.46.46,0,0,0,.6461,0l.96-.9565A.4558.4558,0,0,0,478.02,265.593Z"/>
            <path id="Path_316" data-name="Path 316" class="cls-6" d="M477.059,282.6321l.96-.9565a.4558.4558,0,0,0,0-.6434.4606.4606,0,0,0-.6461,0l-.9605.9565a.4543.4543,0,0,0-.0008.6426l.0008.0008A.4591.4591,0,0,0,477.059,282.6321Z"/>
            <path id="Path_317" data-name="Path 317" class="cls-6" d="M487.112,278.5875a.4559.4559,0,0,0,.6464-.643l0,0-.96-.9565a.4612.4612,0,0,0-.6468,0,.4565.4565,0,0,0,0,.6441Z"/>
            <path id="Path_318" data-name="Path 318" class="cls-6" d="M476.7048,232.27l.9605-.9565a.4543.4543,0,0,0,.0008-.6426l-.0008-.0008a.459.459,0,0,0-.646,0l-.9606.9558a.4562.4562,0,0,0,.6461.6441Z"/>
            <path id="Path_319" data-name="Path 319" class="cls-6" d="M485.7993,270.281l.96.9565a.4561.4561,0,0,0,.6461-.644h0l-.96-.9559a.4559.4559,0,0,0-.6464.6431Z"/>
            <path id="Path_320" data-name="Path 320" class="cls-6" d="M485.7993,274.3256l.96.9559a.4591.4591,0,0,0,.646,0,.4544.4544,0,0,0,.0009-.6426l-.0009-.0008-.96-.9565a.46.46,0,0,0-.6464,0,.4552.4552,0,0,0,0,.6439Z"/>
            <path id="Path_321" data-name="Path 321" class="cls-6" d="M476.06,247.7091a.46.46,0,0,0,.6461,0l.96-.9565a.4543.4543,0,0,0,.0008-.6426l-.0008-.0008a.459.459,0,0,0-.646,0l-.9606.9558A.4565.4565,0,0,0,476.06,247.7091Z"/>
            <path id="Path_322" data-name="Path 322" class="cls-6" d="M487.758,247.065l-.96-.9558a.4562.4562,0,0,0-.6468.6434l.9606.9565a.46.46,0,0,0,.646,0A.47.47,0,0,0,487.758,247.065Z"/>
            <path id="Path_323" data-name="Path 323" class="cls-6" d="M487.758,262.5049l-.96-.9565a.4612.4612,0,0,0-.6468,0,.4558.4558,0,0,0,0,.6434l.9606.9565a.459.459,0,0,0,.646,0,.4414.4414,0,0,0,.0346-.6308A.0323.0323,0,0,0,487.758,262.5049Z"/>
            <path id="Path_324" data-name="Path 324" class="cls-6" d="M485.7993,258.8854l.96.9565a.46.46,0,0,0,.646,0,.4543.4543,0,0,0,.0008-.6426l-.0008-.0008-.96-.9565a.46.46,0,0,0-.6464,0,.4548.4548,0,0,0,0,.6431Z"/>
            <path id="Path_325" data-name="Path 325" class="cls-6" d="M467.0564,258.242a.4612.4612,0,0,0-.6468,0l-.96.9565a.4544.4544,0,0,0-.0008.6426l.0008.0008a.46.46,0,0,0,.646,0l.9606-.9565a.44.44,0,0,0,.0408-.63A.036.036,0,0,0,467.0564,258.242Z"/>
            <path id="Path_326" data-name="Path 326" class="cls-6" d="M467.0564,265.593a.46.46,0,0,0-.6468,0l-.96.9565a.4544.4544,0,0,0-.0008.6426l.0008.0008a.46.46,0,0,0,.646,0l.9606-.9565a.44.44,0,0,0,.0408-.63A.036.036,0,0,0,467.0564,265.593Z"/>
            <path id="Path_327" data-name="Path 327" class="cls-6" d="M467.0564,250.1535a.46.46,0,0,0-.6468,0l-.96.9558a.4544.4544,0,0,0-.0008.6426l.0008.0008a.459.459,0,0,0,.646,0l.9606-.9559a.44.44,0,0,0,.0408-.63A.0362.0362,0,0,0,467.0564,250.1535Z"/>
            <path id="Path_328" data-name="Path 328" class="cls-6" d="M466.4093,269.6376l-.96.9559a.4554.4554,0,0,0,0,.644h0a.46.46,0,0,0,.6461,0l.96-.9565a.4561.4561,0,1,0-.6467-.6434Z"/>
            <path id="Path_329" data-name="Path 329" class="cls-6" d="M467.0564,227.3626a.461.461,0,0,0-.6468,0l-.96.9565a.4544.4544,0,0,0-.0008.6426l.0008.0008a.4591.4591,0,0,0,.646,0l.9606-.9559A.4911.4911,0,0,0,467.0564,227.3626Z"/>
            <path id="Path_330" data-name="Path 330" class="cls-6" d="M467.0564,234.7136a.461.461,0,0,0-.6468,0l-.96.9565a.4544.4544,0,0,0-.0008.6426l.0008.0008a.4591.4591,0,0,0,.646,0l.9606-.9559A.4634.4634,0,0,0,467.0564,234.7136Z"/>
            <path id="Path_331" data-name="Path 331" class="cls-6" d="M467.0564,238.7579a.46.46,0,0,0-.6468,0l-.96.9565a.4543.4543,0,0,0-.0008.6425l.0008.0008a.46.46,0,0,0,.646,0l.9606-.9565a.44.44,0,0,0,.0408-.63A.036.036,0,0,0,467.0564,238.7579Z"/>
            <path id="Path_332" data-name="Path 332" class="cls-6" d="M467.0564,242.8035a.46.46,0,0,0-.6468,0l-.96.9558a.4554.4554,0,0,0,0,.644h0a.46.46,0,0,0,.646,0l.9606-.9565a.44.44,0,0,0,.0408-.63A.036.036,0,0,0,467.0564,242.8035Z"/>
            <path id="Path_333" data-name="Path 333" class="cls-6" d="M467.0564,254.1974a.4612.4612,0,0,0-.6468,0l-.96.9565a.4544.4544,0,0,0-.0008.6426l.0008.0008a.4586.4586,0,0,0,.646,0l.9606-.9558A.4615.4615,0,0,0,467.0564,254.1974Z"/>
            <path id="Path_334" data-name="Path 334" class="cls-6" d="M449.4233,236.3135a.4593.4593,0,0,0,.6461,0,.4544.4544,0,0,0,.0008-.6426l-.0008-.0008-.96-.9565a.461.461,0,0,0-.6468,0,.4564.4564,0,0,0,0,.644Z"/>
            <path id="Path_335" data-name="Path 335" class="cls-6" d="M465.097,263.1483a.459.459,0,0,0,.646,0l.9606-.9565a.4559.4559,0,0,0-.6461-.6434l-.9605.9565a.4543.4543,0,0,0-.0008.6426Z"/>
            <path id="Path_336" data-name="Path 336" class="cls-6" d="M448.4628,243.4462l.96.9565a.46.46,0,0,0,.6461,0,.4554.4554,0,0,0,0-.644h0l-.96-.9558a.46.46,0,0,0-.6467,0,.44.44,0,0,0-.0408.63A.036.036,0,0,0,448.4628,243.4462Z"/>
            <path id="Path_337" data-name="Path 337" class="cls-6" d="M502.1691,265.593a.46.46,0,0,0-.6467,0l-.96.9565a.4544.4544,0,0,0-.0008.6426l.0008.0008a.46.46,0,0,0,.6461,0l.9605-.9565A.468.468,0,0,0,502.1691,265.593Z"/>
            <path id="Path_338" data-name="Path 338" class="cls-6" d="M450.4212,247.065l-.9605-.9558a.4559.4559,0,0,0-.6461.6434l.9605.9565a.46.46,0,0,0,.6461,0,.4554.4554,0,0,0,0-.644Z"/>
            <path id="Path_339" data-name="Path 339" class="cls-6" d="M465.7434,232.27l.96-.9565a.4559.4559,0,1,0-.6461-.6434l-.96.9558a.4554.4554,0,0,0,0,.644h0A.46.46,0,0,0,465.7434,232.27Z"/>
            <path id="Path_340" data-name="Path 340" class="cls-6" d="M449.11,254.1974a.4564.4564,0,0,0-.6468.6441l.96.9558a.4591.4591,0,0,0,.6461,0,.4544.4544,0,0,0,.0008-.6426l-.0008-.0008Z"/>
            <path id="Path_341" data-name="Path 341" class="cls-6" d="M465.097,247.7091a.46.46,0,0,0,.646,0l.9606-.9565a.4559.4559,0,0,0-.6461-.6434l-.9605.9558a.4554.4554,0,0,0,0,.644Z"/>
            <path id="Path_342" data-name="Path 342" class="cls-6" d="M462.6092,259.8419a.4612.4612,0,0,0,.6468,0,.4558.4558,0,0,0,0-.6434l-.9606-.9565a.46.46,0,0,0-.6461,0,.4545.4545,0,0,0-.0008.6426l.0008.0008Z"/>
            <path id="Path_343" data-name="Path 343" class="cls-6" d="M463.6084,231.6258l-.96-.9558a.459.459,0,0,0-.646,0,.4543.4543,0,0,0-.0008.6426l.0008.0008.96.9565a.46.46,0,0,0,.6461,0,.4555.4555,0,0,0,0-.6441Z"/>
            <path id="Path_344" data-name="Path 344" class="cls-6" d="M463.6084,247.065l-.96-.9558a.459.459,0,0,0-.646,0,.4543.4543,0,0,0-.0008.6426l.0008.0008.96.9565a.46.46,0,0,0,.6461,0,.4554.4554,0,0,0,0-.644Z"/>
            <path id="Path_345" data-name="Path 345" class="cls-6" d="M462.0021,261.5474a.4545.4545,0,0,0-.0008.6426l.0008.0008.96.9565a.4591.4591,0,0,0,.6461,0,.4545.4545,0,0,0,.0008-.6426l-.0008-.0008-.96-.9565A.46.46,0,0,0,462.0021,261.5474Z"/>
            <path id="Path_346" data-name="Path 346" class="cls-6" d="M429.72,242.8028a.4531.4531,0,0,0-.56-.0572,1.93,1.93,0,0,0-.0928.8926c.0168.1261.0336.2613.0551.4036l.5974-.5953a.4545.4545,0,0,0,.0011-.6426Z"/>
            <path id="Path_347" data-name="Path 347" class="cls-6" d="M463.2563,267.1932a.4557.4557,0,0,0,0-.6433l-.9606-.9565a.45.45,0,0,0-.0484-.0337c.1988.596.4009,1.1772.6054,1.7489A.4515.4515,0,0,0,463.2563,267.1932Z"/>
            <path id="Path_348" data-name="Path 348" class="cls-6" d="M467.0564,273.6816a.461.461,0,0,0-.6468,0l-.6581.6555c.1382.2949.2761.5932.413.8768l.8919-.8879A.4565.4565,0,0,0,467.0564,273.6816Z"/>
            <path id="Path_349" data-name="Path 349" class="cls-6" d="M461.6493,235.3576l.96.9559a.4562.4562,0,1,0,.6468-.6434l-.9606-.9565a.46.46,0,0,0-.6461,0,.44.44,0,0,0-.04.63A.0362.0362,0,0,0,461.6493,235.3576Z"/>
            <path id="Path_350" data-name="Path 350" class="cls-6" d="M462.6092,224.9189a.4612.4612,0,0,0,.6468,0,.4565.4565,0,0,0,0-.6441l-.9606-.9558a.4591.4591,0,0,0-.6461,0,.4544.4544,0,0,0-.0008.6425l.0008.0008Z"/>
            <path id="Path_351" data-name="Path 351" class="cls-6" d="M467.0564,223.319a.46.46,0,0,0-.6468,0l-.96.9558a.4554.4554,0,0,0,0,.644h0a.46.46,0,0,0,.646,0l.9606-.9565a.45.45,0,0,0,.0137-.6395A.0117.0117,0,0,0,467.0564,223.319Z"/>
            <path id="Path_352" data-name="Path 352" class="cls-6" d="M461.6493,228.0066l.96.9559a.4562.4562,0,1,0,.6468-.6434l-.9606-.9565a.46.46,0,0,0-.6461,0,.44.44,0,0,0-.04.63A.0361.0361,0,0,0,461.6493,228.0066Z"/>
            <path id="Path_353" data-name="Path 353" class="cls-6" d="M461.6493,254.8415l.96.9558a.4562.4562,0,0,0,.6468-.6434l-.9606-.9565a.46.46,0,0,0-.6461,0A.5382.5382,0,0,0,461.6493,254.8415Z"/>
            <path id="Path_354" data-name="Path 354" class="cls-6" d="M461.6493,250.7972l.96.9558a.4562.4562,0,0,0,.6468-.6434l-.9606-.9558a.4591.4591,0,0,0-.6461,0,.4415.4415,0,0,0-.0345.6308A.0322.0322,0,0,0,461.6493,250.7972Z"/>
            <path id="Path_355" data-name="Path 355" class="cls-6" d="M461.6493,239.4016l.96.9565a.4612.4612,0,0,0,.6468,0,.4558.4558,0,0,0,0-.6434l-.9606-.9565a.4591.4591,0,0,0-.6461,0A.5492.5492,0,0,0,461.6493,239.4016Z"/>
            <path id="Path_356" data-name="Path 356" class="cls-6" d="M461.6493,243.4462l.96.9565a.4612.4612,0,0,0,.6468,0,.4565.4565,0,0,0,0-.6441l-.9606-.9558a.4591.4591,0,0,0-.6461,0,.4518.4518,0,0,0-.0071.64Z"/>
            <path id="Path_357" data-name="Path 357" class="cls-6" d="M448.4628,239.4016l.96.9565a.46.46,0,0,0,.6461,0,.4544.4544,0,0,0,.0008-.6426l-.0008-.0008-.96-.9565a.46.46,0,0,0-.6467,0,.44.44,0,0,0-.0408.63A.036.036,0,0,0,448.4628,239.4016Z"/>
            <path id="Path_358" data-name="Path 358" class="cls-6" d="M442.9068,254.1974a.46.46,0,0,0-.6461,0l-.96.9565a.4543.4543,0,0,0-.0008.6426l.0008.0008a.459.459,0,0,0,.646,0l.9606-.9558A.4568.4568,0,0,0,442.9068,254.1974Z"/>
            <path id="Path_359" data-name="Path 359" class="cls-6" d="M441.5934,247.7091l.9605-.9565a.4543.4543,0,0,0,.0008-.6426l-.0008-.0008a.459.459,0,0,0-.646,0l-.9606.9558a.4562.4562,0,0,0,.6461.6441Z"/>
            <path id="Path_360" data-name="Path 360" class="cls-6" d="M442.26,258.242l-.9606.9565a.4545.4545,0,0,0-.0008.6426l.0008.0008a.46.46,0,0,0,.6461,0l.9605-.9565a.4559.4559,0,0,0-.646-.6434Z"/>
            <path id="Path_361" data-name="Path 361" class="cls-6" d="M441.3,236.3151a.4591.4591,0,0,0,.6461,0l.9605-.9558a.4564.4564,0,0,0,0-.644.45.45,0,0,0-.262-.1211l-.6054.3407-.74.7369a.4544.4544,0,0,0,0,.6425Z"/>
            <path id="Path_362" data-name="Path 362" class="cls-6" d="M442.9068,242.8035a.4591.4591,0,0,0-.6461,0l-.96.9558a.4554.4554,0,0,0,0,.644h0a.46.46,0,0,0,.646,0l.9606-.9565A.4558.4558,0,0,0,442.9068,242.8035Z"/>
            <path id="Path_363" data-name="Path 363" class="cls-6" d="M442.9068,238.7579a.4591.4591,0,0,0-.6461,0l-.96.9565a.4542.4542,0,0,0-.0008.6425l.0008.0008a.46.46,0,0,0,.646,0l.9606-.9565A.4557.4557,0,0,0,442.9068,238.7579Z"/>
            <path id="Path_364" data-name="Path 364" class="cls-6" d="M452.2626,228.3194a.4561.4561,0,0,0,.6467.6434l.96-.9558a.4554.4554,0,0,0,0-.644h0a.4487.4487,0,0,0-.22-.113l-1.1513.8344Z"/>
            <path id="Path_365" data-name="Path 365" class="cls-6" d="M450.0694,251.11l-.96-.9558a.4562.4562,0,0,0-.6468.6434l.96.9558a.4591.4591,0,0,0,.6461,0,.4414.4414,0,0,0,.0345-.6308A.0324.0324,0,0,0,450.0694,251.11Z"/>
            <path id="Path_366" data-name="Path 366" class="cls-6" d="M500.21,263.1483a.4591.4591,0,0,0,.6461,0l.9605-.9565a.4559.4559,0,0,0-.6461-.6434l-.9605.9565a.4544.4544,0,0,0-.0008.6426Z"/>
            <path id="Path_367" data-name="Path 367" class="cls-6" d="M438.1454,250.1535a.4558.4558,0,0,0-.6468.6425l.0008.0008.9605.9559a.4559.4559,0,1,0,.6461-.6434Z"/>
            <path id="Path_368" data-name="Path 368" class="cls-6" d="M501.522,250.1535l-.96.9558a.4544.4544,0,0,0-.0008.6426l.0008.0008a.4591.4591,0,0,0,.6461,0l.96-.9559a.4561.4561,0,1,0-.6468-.6433Z"/>
            <path id="Path_369" data-name="Path 369" class="cls-6" d="M501.522,269.6376l-.96.9559a.4554.4554,0,0,0,0,.644h0a.46.46,0,0,0,.6461,0l.96-.9565a.4562.4562,0,1,0-.6468-.6434Z"/>
            <path id="Path_370" data-name="Path 370" class="cls-6" d="M465.4494,220.2309a.4545.4545,0,0,0-.0008.6426l.0008.0008a.46.46,0,0,0,.6461,0l.9606-.9565a.4558.4558,0,0,0,0-.6434.4462.4462,0,0,0-.223-.1137c-.2018.0989-.4.1954-.6148.3027Z"/>
            <path id="Path_371" data-name="Path 371" class="cls-6" d="M510.3011,261.5474a.4556.4556,0,0,0,0,.6434l.5065.5045c.2018-.2459.3935-.4864.5757-.7147l-.4372-.4339A.46.46,0,0,0,510.3011,261.5474Z"/>
            <path id="Path_372" data-name="Path 372" class="cls-6" d="M497.3076,246.0016a.4394.4394,0,0,0-.1914.1076.4544.4544,0,0,0-.0008.6426l.0008.0008.96.9565a.46.46,0,0,0,.646,0,.449.449,0,0,0,.1272-.3572q-.5172-.4314-.972-.83C497.7041,246.3708,497.5094,246.1923,497.3076,246.0016Z"/>
            <path id="Path_373" data-name="Path 373" class="cls-6" d="M510.91,259.8419a.46.46,0,0,0,.646,0,.4543.4543,0,0,0,.0008-.6426l-.0008-.0008-.96-.9565a.4612.4612,0,0,0-.6468,0,.4558.4558,0,0,0,0,.6434Z"/>
            <path id="Path_374" data-name="Path 374" class="cls-6" d="M442.9068,250.1535a.4591.4591,0,0,0-.6461,0l-.96.9558a.4543.4543,0,0,0-.0008.6426l.0008.0008a.459.459,0,0,0,.646,0l.9606-.9559A.4557.4557,0,0,0,442.9068,250.1535Z"/>
            <path id="Path_375" data-name="Path 375" class="cls-6" d="M453.87,238.7579a.459.459,0,0,0-.646,0l-.9606.9565a.4557.4557,0,0,0,0,.6433.461.461,0,0,0,.6468,0l.96-.9565a.4518.4518,0,0,0,.0072-.64Z"/>
            <path id="Path_376" data-name="Path 376" class="cls-6" d="M453.87,242.8035a.459.459,0,0,0-.646,0l-.9606.9558a.4565.4565,0,0,0,0,.6441.4612.4612,0,0,0,.6468,0l.96-.9565A.477.477,0,0,0,453.87,242.8035Z"/>
            <path id="Path_377" data-name="Path 377" class="cls-6" d="M452.5569,247.7091l.96-.9565a.4543.4543,0,0,0,.0008-.6426l-.0008-.0008a.459.459,0,0,0-.646,0l-.9606.9558a.4565.4565,0,0,0,0,.6441A.4612.4612,0,0,0,452.5569,247.7091Z"/>
            <path id="Path_378" data-name="Path 378" class="cls-6" d="M452.8706,230.67l-.9605.9559a.4564.4564,0,0,0,0,.644.461.461,0,0,0,.6468,0l.96-.9565a.4543.4543,0,0,0,.0008-.6426l-.0008-.0008A.4591.4591,0,0,0,452.8706,230.67Z"/>
            <path id="Path_379" data-name="Path 379" class="cls-6" d="M453.87,234.7136a.46.46,0,0,0-.646,0l-.9606.9565a.4562.4562,0,1,0,.6468.6434l.96-.9559a.44.44,0,0,0,.04-.63A.0363.0363,0,0,0,453.87,234.7136Z"/>
            <path id="Path_380" data-name="Path 380" class="cls-6" d="M448.8153,231.313l.9605.9565a.46.46,0,0,0,.6461,0,.4554.4554,0,0,0,0-.644h0l-.9606-.9559a.4507.4507,0,0,0-.4109-.1163c-.0989.0692-.1975.1389-.2963.2075A.45.45,0,0,0,448.8153,231.313Z"/>
            <path id="Path_381" data-name="Path 381" class="cls-6" d="M438.1454,254.1974a.46.46,0,0,0-.646,0,.4554.4554,0,0,0,0,.644h0l.9605.9558a.4559.4559,0,1,0,.6461-.6434Z"/>
            <path id="Path_382" data-name="Path 382" class="cls-6" d="M453.2234,254.1974l-.9605.9565a.4562.4562,0,0,0,.6468.6434l.96-.9558a.4554.4554,0,0,0,0-.644h0A.46.46,0,0,0,453.2234,254.1974Z"/>
            <path id="Path_383" data-name="Path 383" class="cls-6" d="M438.46,240.3581a.4559.4559,0,0,0,.6461-.6434l-.96-.9565a.4591.4591,0,0,0-.6461,0,.4544.4544,0,0,0-.0008.6426l.0008.0008Z"/>
            <path id="Path_384" data-name="Path 384" class="cls-6" d="M439.4591,247.065l-.96-.9558a.4591.4591,0,0,0-.6461,0,.4545.4545,0,0,0-.0008.6426l.0008.0008.96.9565a.4562.4562,0,0,0,.6461-.6441Z"/>
            <path id="Path_385" data-name="Path 385" class="cls-6" d="M453.87,250.1535a.459.459,0,0,0-.646,0l-.9606.9558a.4562.4562,0,0,0,.6468.6434l.96-.9559a.4412.4412,0,0,0,.0345-.6307A.0321.0321,0,0,0,453.87,250.1535Z"/>
            <path id="Path_386" data-name="Path 386" class="cls-6" d="M437.5,243.4462l.96.9565a.4562.4562,0,0,0,.6461-.6441l-.9609-.9551a.459.459,0,0,0-.646,0,.4544.4544,0,0,0,0,.6426Z"/>
            <path id="Path_387" data-name="Path 387" class="cls-6" d="M448.4628,258.242a.4558.4558,0,0,0,0,.6434l.0525.0518c.3279-.0982.6568-.1967.9921-.299l-.3975-.3962A.4611.4611,0,0,0,448.4628,258.242Z"/>
            <path id="Path_388" data-name="Path 388" class="cls-6" d="M438.5907,261.64l-.0921-.0914a.46.46,0,0,0-.6461,0,.47.47,0,0,0-.043.0645A3.9775,3.9775,0,0,0,438.5907,261.64Z"/>
            <path id="Path_389" data-name="Path 389" class="cls-6" d="M438.46,259.8419a.4559.4559,0,0,0,.6461-.6434l-.96-.9565a.46.46,0,0,0-.6461,0,.4544.4544,0,0,0-.0008.6426l.0008.0008Z"/>
          </g>
          <path id="Path_390" data-name="Path 390" class="cls-8" d="M459.6169,255.3614c.0216.109.0458.2109.0673.3212.41,2.1548.9014,4.22,1.4462,6.1846.0094.0337.0195.0633.0282.0956.43-2.4182,2.4377-5.1068,4.3282-7.2354a2.4176,2.4176,0,0,0,.5986-2.0112C464.29,253.5594,461.8747,254.5267,459.6169,255.3614Z"/>
        </g>
      </g>
      <circle id="Ellipse_7" data-name="Ellipse 7" class="cls-18" cx="447.6035" cy="204.5317" r="0.5724"/>
      <path id="Path_391" data-name="Path 391" class="cls-18" d="M448.1759,210.1637s3.0632-.4708,3.8082-1.5087C452.1116,208.5309,450.7145,213.7906,448.1759,210.1637Z"/>
      <path id="Path_392" data-name="Path 392" class="cls-12" d="M446.3029,204.3373s-1.2972,4.0984-.9329,4.6429,1.7848-.0646,1.956-.1285A39.4734,39.4734,0,0,0,446.3029,204.3373Z"/>
      <g id="Group_70" data-name="Group 70">
        <path id="Path_393" data-name="Path 393" class="cls-18" d="M448.7493,203.7188a.1682.1682,0,0,1-.1577-.111,1.2925,1.2925,0,0,0-.714-.85,1.3533,1.3533,0,0,0-1.0056.12.1677.1677,0,0,1-.1692-.29,1.6667,1.6667,0,0,1,1.2865-.1476,1.6045,1.6045,0,0,1,.9181,1.0527.1682.1682,0,0,1-.1009.2149A.1714.1714,0,0,1,448.7493,203.7188Z"/>
      </g>
      <path id="Path_394" data-name="Path 394" class="cls-12" d="M456.7061,204.29s.5-3.0572,2.104-1.9231,2.1763,5.1434,0,5.2584S456.7061,204.29,456.7061,204.29Z"/>
    </g>
    <g id="boy">
      <path id="Path_395" data-name="Path 395" class="cls-10" d="M103.2319,269.8472s-13.6853,8.7965-12.941,32.2533c-.0774,3.4015-32.5917,72.59-33.2687,74.3585.1171.7039,5.53,4.6806,8.11,4.6806s32.5715-31.89,42.0793-48.7792c3.41-6.4506,12.5583-20.9939,5.99-34.6s.821-29.79.821-29.79Z"/>
      <g id="Group_71" data-name="Group 71">
        <path id="Path_396" data-name="Path 396" class="cls-6" d="M65.2312,375.92a.2826.2826,0,0,1-.2176-.4615c.1557-.1893,15.7368-19.18,27.9084-35.06,12.1291-15.8263,14.8139-34.2823,14.84-34.4673a.288.288,0,0,1,.3185-.2405.2805.2805,0,0,1,.24.3158l0,.0021c-.0255.1866-2.7313,18.79-14.95,34.7316-12.1766,15.8889-27.7638,34.8857-27.92,35.0758A.282.282,0,0,1,65.2312,375.92Z"/>
      </g>
      <ellipse id="Ellipse_8" data-name="Ellipse 8" class="cls-4" cx="61.9372" cy="404.9394" rx="17.2799" ry="3.3111"/>
      <path id="Path_397" data-name="Path 397" class="cls-11" d="M109.8746,300.2864s3.1665,23.0266-3.8879,34.1367c-.0087.0134,11.476-16.881,10.1465-28.844S109.8746,300.2864,109.8746,300.2864Z"/>
      <ellipse id="Ellipse_9" data-name="Ellipse 9" class="cls-4" cx="156.9776" cy="404.3139" rx="16.3157" ry="2.7501"/>
      <path id="Path_398" data-name="Path 398" class="cls-10" d="M108.6262,270.8632s-7.6625,29.4776,12.6662,45.5064c3.5987,3.5966,8.21,14.7,12.0807,32.2927s9.5179,41.5385,9.5179,41.5385,6.4332,1.8568,11.2423-1.0762c.117-.3522,2.8147-52.6607,0-63.8028s-6.6851-26.8583-11.7286-36.8273c-1.877-3.753-3.05-19.3281-3.05-19.3281Z"/>
      <g id="Group_72" data-name="Group 72">
        <path id="Path_399" data-name="Path 399" class="cls-6" d="M149.9111,384.482a.29.29,0,0,1-.0525-.0054.2818.2818,0,0,1-.2243-.3293c1.457-7.7354-2.9562-52.1057-4.6184-68.8088l-.194-1.9507c-1.5007-15.1244-10.541-29.8738-10.6325-30.0215a.2818.2818,0,0,1,.4791-.2967l.0005.0008c.0921.1483,9.2,15.0094,10.7135,30.2626l.1941,1.9507c1.6638,16.7249,6.0834,61.1541,4.611,68.9693A.282.282,0,0,1,149.9111,384.482Z"/>
      </g>
      <path id="Path_400" data-name="Path 400" class="cls-8" d="M100.3587,271.7824l-3.2189,4.42s18.4641,7.4253,27.32,7.8363a90.935,90.935,0,0,0,16.5545-.8209l-.7735-5.2652Z"/>
      <path id="Path_401" data-name="Path 401" class="cls-12" d="M154.0425,228.8168A10.3156,10.3156,0,0,1,152.558,217.74a3.4124,3.4124,0,0,1,.9659-1.3321,109.8586,109.8586,0,0,0,10.3978-7.5814c3.8919-3.3589,16.923-19.8239,20.9945-24.6619.9229-1.0971,3.7282-1.8117,3.7282-1.8117a5,5,0,0,1,4.7519,7.275c-4.7485,8.9757-13.96,26.0737-17.4262,30.428-3.3441,4.201-8.208,10.1842-11.2456,13.9093a3.4976,3.4976,0,0,1-2.2948,1.2044,5.17,5.17,0,0,1-4.6516-1.8814Z"/>
      <path id="Path_402" data-name="Path 402" class="cls-6" d="M142.8917,390.2011s9.9552.0162,11.3005-1.8787c0-.0141-1.0144,4.6867,4.1626,7.1368,5.05,2.3879,9.7241,2.857,11.963,5.3953.9417,2.1285-.8209,2.58-7.74,2.8146s-17.71,2.1115-18.8835-1.877C143.0131,399.0185,142.7734,398.0593,142.8917,390.2011Z"/>
      <path id="Path_403" data-name="Path 403" class="cls-6" d="M57.3515,375.71s6.9161,1.5874,9.4264,5.21c0,0-4.16,5.5561-1.056,9.5657,2.9374,3.7961,6.9181,7.3261,7.1408,9.4446.0033,1.8619-2.1347,2.6072-7.7257.1645-4.11-1.795-10.467-4.4334-13.2259-7.31a4.2827,4.2827,0,0,1-.6757-4.6557C53.0486,383.9371,54.185,382.0463,57.3515,375.71Z"/>
      <g id="Group_73" data-name="Group 73">
        <path id="Path_404" data-name="Path 404" class="cls-12" d="M171.06,175.2857h0a5.8665,5.8665,0,0,0-7.3937-1.4085l-36.0336,22.5061c-1.2444.7772-2.2853,3.2794-1.9312,6.2075.2257,1.87.3027,3.563,1.9353,5.4941l1.3748,1.5135a8.2716,8.2716,0,0,0,6.976,2.7528,6.3408,6.3408,0,0,0,2.8423-.9559c7.5673-5.213,24.5132-21.33,31.8232-28.6667A5.5525,5.5525,0,0,0,171.06,175.2857Z"/>
      </g>
      <path id="Path_405" data-name="Path 405" class="cls-15" d="M140.5869,198.3578l1.8767,10.09-1.0187.9534-6.1937-11.3364Z"/>
      <path id="Path_406" data-name="Path 406" class="cls-6" d="M110.2691,224.4581l5.4242-13.1667a2.6873,2.6873,0,0,1,4.67-.54l10.19,14.2449a2.6869,2.6869,0,0,0,3.3367.8644l19.5309-9.262a2.6848,2.6848,0,0,1,2.7242.2492,22.2392,22.2392,0,0,1,9.1981,15.297,2.7241,2.7241,0,0,1-.6447,2.1053c-2.89,3.3057-13.2636,14.95-16,18.02a2.6753,2.6753,0,0,0-.6777,1.7512l-.2674,21.9178a2.6825,2.6825,0,0,1-1.0043,2.0644c-3.0417,2.4443-13.7061,8.177-40.3523-.9417-8.5069-3.4083-12.5488-5.5319-14.4517-6.8176a2.6772,2.6772,0,0,1-.9256-3.3253Z"/>
      <path id="Path_408" data-name="Path 408" class="cls-6" d="M148.0348,253.0166l-6.5748,6.9783,6.5321-3.489Z"/>
      <g id="Object-2">
        <path id="Path_409" data-name="Path 409" class="cls-7" d="M310.3245,142.2421H172.65c-4.6556,0-8.43,2.406-8.43,5.3741h0V180.682c-.004,2.2534,1.404,4.4144,3.9113,6.0027a17.7557,17.7557,0,0,0,9.3808,2.4713H310.3245c4.6556,0,8.43-2.4061,8.43-5.3741h0V147.6155C318.7536,144.6477,314.98,142.2421,310.3245,142.2421Z"/>
      </g>
      <path id="Path_413" data-name="Path 413" class="cls-12" d="M163.3848,174.3622s2.2342-3.4507,4.2084-4.1112c1.0184-.3407,1.8162-.5489,2.3543-.6726a.4914.4914,0,0,1,.5718.646,4.3931,4.3931,0,0,1-2.02,2.3264c-2.0563,1.1512-2.5325,12.0248-7.9782,6.0874C158.9326,176.9088,163.3848,174.3622,163.3848,174.3622Z"/>
      <path id="Path_414" data-name="Path 414" class="cls-12" d="M185.607,190.0049s-.0309-4.1105,1.2555-5.7474c.6629-.8439,1.2158-1.4576,1.5962-1.8542a.4913.4913,0,0,1,.833.2257,5.0237,5.0237,0,0,1-.1008,3.4056c-.8607,2.1945,4.1875,11.0852-3.6263,9.1184C183.2877,194.58,185.607,190.0049,185.607,190.0049Z"/>
      <g id="Group_75" data-name="Group 75">
        <path id="Path_416" data-name="Path 416" class="cls-3" d="M160.6082,239.0911l-.3333-.043a19.7748,19.7748,0,0,0-10.3894-20.6542l.1383-.3057A20.1149,20.1149,0,0,1,160.6082,239.0911Z"/>
      </g>
      <g id="Group_77" data-name="Group 77">
        <g id="Group_76" data-name="Group 76">
          <path id="Path_417" data-name="Path 417" class="cls-9" d="M138.8575,205.4512a.2616.2616,0,0,1-.1436-.48l.6276-.415a.2621.2621,0,0,1,.2889.4375l-.6282.4144A.26.26,0,0,1,138.8575,205.4512Z"/>
        </g>
      </g>
      <g id="Group_79" data-name="Group 79">
        <g id="Group_78" data-name="Group 78">
          <path id="Path_418" data-name="Path 418" class="cls-9" d="M131.893,209.1632a.2617.2617,0,0,1-.1227-.4928l.0006,0,4.615-2.4383a.2619.2619,0,0,1,.2453.4628l-.0005,0-4.615,2.4383A.2572.2572,0,0,1,131.893,209.1632Z"/>
        </g>
      </g>
      <g id="Group_80" data-name="Group 80">
        <path id="Path_419" data-name="Path 419" class="cls-9" d="M129.5091,238.6257a1.5851,1.5851,0,1,0-1.5847,1.5854A1.5867,1.5867,0,0,0,129.5091,238.6257Zm-2.883,0a1.2986,1.2986,0,1,1,1.2986,1.2985,1.3,1.3,0,0,1-1.2986-1.2985Z"/>
        <path id="Path_420" data-name="Path 420" class="cls-9" d="M137.9572,242.5916a1.5867,1.5867,0,0,0-1.5864,1.5854c0,.0283.0074.0552.0087.0841s-.0087.0551-.0087.0841a1.5854,1.5854,0,0,0,3.1708,0c0-.029-.0067-.0559-.0087-.0841s.0087-.0558.0087-.0841A1.5871,1.5871,0,0,0,137.9572,242.5916Zm0,2.884a1.2167,1.2167,0,1,1,1.2905-1.2145,1.2962,1.2962,0,0,1-1.2905,1.2145Z"/>
        <path id="Path_421" data-name="Path 421" class="cls-9" d="M137.7433,263.419a1.5846,1.5846,0,1,0,1.5841,1.5838A1.5874,1.5874,0,0,0,137.7433,263.419Zm0,2.884a1.3,1.3,0,0,1-1.3-1.3h0a1.2986,1.2986,0,1,1,1.3,1.3Z"/>
        <path id="Path_422" data-name="Path 422" class="cls-9" d="M138.6732,254.3434a1.5643,1.5643,0,0,0,.1988-.7531,1.5832,1.5832,0,0,0-3.0551-.5852,1.5643,1.5643,0,0,0-.1988.7531,1.5832,1.5832,0,0,0,3.0551.5852Zm-2.6848-.7531a1.2946,1.2946,0,1,1,1.2992,1.2986,1.2915,1.2915,0,0,1-1.2992-1.2986Z"/>
        <path id="Path_423" data-name="Path 423" class="cls-9" d="M137.7433,272.2239a1.5851,1.5851,0,1,0,1.5854,1.5855A1.5871,1.5871,0,0,0,137.7433,272.2239Zm0,2.8837a1.2981,1.2981,0,1,0,0-.001Z"/>
        <path id="Path_424" data-name="Path 424" class="cls-9" d="M128.6774,248.343a1.5855,1.5855,0,1,0,1.5854,1.5855A1.5871,1.5871,0,0,0,128.6774,248.343Zm0,2.884a1.2987,1.2987,0,1,1,1.2985-1.2989,1.3,1.3,0,0,1-1.2985,1.2989Z"/>
        <path id="Path_425" data-name="Path 425" class="cls-9" d="M137.0353,234.6268c.0283,0,.0552-.0067.0841-.0081s.0552.0081.0841.0081a1.5851,1.5851,0,0,0,0-3.17c-.0289,0-.0558.0068-.0841.0081s-.0558-.0081-.0841-.0081a1.5851,1.5851,0,1,0,0,3.17Zm.0841-2.8752a1.2924,1.2924,0,1,1-1.2151,1.2905,1.2962,1.2962,0,0,1,1.2151-1.2905Z"/>
        <path id="Path_426" data-name="Path 426" class="cls-9" d="M146.4009,270.7566a1.5867,1.5867,0,0,0,1.5854,1.5847,1.56,1.56,0,0,0,.2035-.02l.0033-.2869a1.2969,1.2969,0,1,1-.2068-2.5769,1.3192,1.3192,0,0,1,.2378.0243l.0034-.2863a1.5519,1.5519,0,0,0-1.8266,1.5613Z"/>
        <path id="Path_427" data-name="Path 427" class="cls-9" d="M148.2012,224.8233a1.5851,1.5851,0,1,0,1.5855,1.5855A1.5871,1.5871,0,0,0,148.2012,224.8233Zm0,2.8833a1.2986,1.2986,0,1,1,1.2986-1.2978A1.2995,1.2995,0,0,1,148.2012,227.7066Z"/>
        <path id="Path_428" data-name="Path 428" class="cls-9" d="M136.5544,281.573c.1658-.0188.3363-.0363.4984-.0578a1.2392,1.2392,0,0,1,1.0326-.15c.1718-.0283.3333-.06.5-.0908a1.5613,1.5613,0,0,0-2.0307.2986Z"/>
        <path id="Path_429" data-name="Path 429" class="cls-9" d="M127.9247,260.9269a1.5851,1.5851,0,1,0-1.5854-1.5854A1.5864,1.5864,0,0,0,127.9247,260.9269Zm0-2.884a1.2989,1.2989,0,1,1-1.2986,1.2985,1.3,1.3,0,0,1,1.2986-1.2985Z"/>
        <path id="Path_430" data-name="Path 430" class="cls-9" d="M147.5316,260.9269a1.5661,1.5661,0,0,0,.7995-.2244l.0047-.3494a1.299,1.299,0,1,1,.0242-2.0024l.004-.3515a1.5674,1.5674,0,0,0-.8324-.2425,1.5851,1.5851,0,1,0,0,3.17Z"/>
        <path id="Path_431" data-name="Path 431" class="cls-9" d="M128.6774,224.8233a1.5851,1.5851,0,1,0,1.5854,1.5855A1.5864,1.5864,0,0,0,128.6774,224.8233Zm0,2.8833a1.2986,1.2986,0,1,1,1.2985-1.2978A1.2994,1.2994,0,0,1,128.6774,227.7066Z"/>
        <path id="Path_432" data-name="Path 432" class="cls-9" d="M149.7863,249.9285a1.5854,1.5854,0,1,0-1.5854,1.5854A1.5875,1.5875,0,0,0,149.7863,249.9285Zm-1.5854,1.2985a1.2986,1.2986,0,1,1,1.2986-1.2985,1.3,1.3,0,0,1-1.2986,1.2985Z"/>
        <path id="Path_433" data-name="Path 433" class="cls-9" d="M118.8548,242.7594a1.5855,1.5855,0,1,0,1.5854,1.5854A1.5866,1.5866,0,0,0,118.8548,242.7594Zm0,2.884a1.2986,1.2986,0,1,1,1.2985-1.2985,1.3,1.3,0,0,1-1.2985,1.2985Z"/>
        <path id="Path_434" data-name="Path 434" class="cls-9" d="M148.8642,238.7938a1.5851,1.5851,0,1,0-1.5848,1.5855A1.5872,1.5872,0,0,0,148.8642,238.7938Zm-2.8837,0a1.2986,1.2986,0,1,1,1.2992,1.2986,1.3006,1.3006,0,0,1-1.2992-1.2986Z"/>
        <path id="Path_435" data-name="Path 435" class="cls-9" d="M108.7382,260.9269a1.5851,1.5851,0,1,0-1.5855-1.5854A1.5867,1.5867,0,0,0,108.7382,260.9269Zm0-2.884a1.2989,1.2989,0,1,1-1.2992,1.2985,1.2991,1.2991,0,0,1,1.2992-1.2985Z"/>
        <path id="Path_436" data-name="Path 436" class="cls-9" d="M110.3226,238.6257a1.5851,1.5851,0,1,0-1.5847,1.5854A1.587,1.587,0,0,0,110.3226,238.6257Zm-2.8836,0a1.2986,1.2986,0,1,1,1.2992,1.2985,1.3006,1.3006,0,0,1-1.2992-1.2985Z"/>
        <path id="Path_437" data-name="Path 437" class="cls-9" d="M118.1,255.3433a1.5855,1.5855,0,1,0-1.5854-1.5855A1.5868,1.5868,0,0,0,118.1,255.3433Zm0-2.884a1.2986,1.2986,0,1,1-1.2986,1.2985,1.3,1.3,0,0,1,1.2986-1.2985Z"/>
        <path id="Path_438" data-name="Path 438" class="cls-9" d="M109.277,269.002a1.5851,1.5851,0,1,0,1.5854,1.5854A1.5871,1.5871,0,0,0,109.277,269.002Zm0,2.8839a1.2992,1.2992,0,1,1,0,.0014Z"/>
        <path id="Path_439" data-name="Path 439" class="cls-9" d="M118.8548,219.239a1.5851,1.5851,0,1,0,1.5854,1.5855A1.5873,1.5873,0,0,0,118.8548,219.239Zm0,2.8837a1.2993,1.2993,0,1,1,0,.0013Z"/>
        <path id="Path_440" data-name="Path 440" class="cls-9" d="M119.6848,233.0424a1.5851,1.5851,0,1,0-1.5847,1.5847A1.5864,1.5864,0,0,0,119.6848,233.0424Zm-2.8833,0a1.2978,1.2978,0,1,0,.0017,0Z"/>
        <path id="Path_441" data-name="Path 441" class="cls-9" d="M118.64,272.2239a1.5851,1.5851,0,1,0,1.5854,1.5855A1.5872,1.5872,0,0,0,118.64,272.2239Zm0,2.8837a1.2981,1.2981,0,1,0,0-.001Z"/>
        <path id="Path_442" data-name="Path 442" class="cls-9" d="M118.1,211.1064a1.5807,1.5807,0,0,0,1.573-1.4573,2.59,2.59,0,0,0-.2761-.1035,1.2953,1.2953,0,0,1-2.5.4547,2.7844,2.7844,0,0,0-.2237.1967A1.5805,1.5805,0,0,0,118.1,211.1064Z"/>
        <path id="Path_443" data-name="Path 443" class="cls-9" d="M118.64,263.419a1.5846,1.5846,0,1,0,1.585,1.5838A1.5876,1.5876,0,0,0,118.64,263.419Zm0,2.884a1.2994,1.2994,0,1,1,1.2985-1.3A1.3,1.3,0,0,1,118.64,266.303Z"/>
        <path id="Path_444" data-name="Path 444" class="cls-9" d="M128.4642,269.002a1.5851,1.5851,0,1,0,1.5854,1.5854A1.5871,1.5871,0,0,0,128.4642,269.002Zm0,2.8839a1.2992,1.2992,0,1,1,0,.0014Z"/>
        <path id="Path_445" data-name="Path 445" class="cls-9" d="M155.9814,244.32l.3642-.41a1.2969,1.2969,0,0,1,.6441-.7241q.1792-.2018.36-.4036A1.5808,1.5808,0,0,0,155.9814,244.32Z"/>
        <path id="Path_446" data-name="Path 446" class="cls-9" d="M156.6413,234.7946a1.5851,1.5851,0,1,0-1.5855-1.5847A1.586,1.586,0,0,0,156.6413,234.7946Zm0-2.8836a1.2989,1.2989,0,1,1-1.2986,1.2992A1.3,1.3,0,0,1,156.6413,231.911Z"/>
        <path id="Path_447" data-name="Path 447" class="cls-9" d="M109.4919,248.343a1.5855,1.5855,0,1,0,1.5854,1.5855A1.5874,1.5874,0,0,0,109.4919,248.343Zm0,2.884a1.2986,1.2986,0,1,1,1.2985-1.2985,1.3,1.3,0,0,1-1.2985,1.2985Z"/>
        <path id="Path_448" data-name="Path 448" class="cls-9" d="M155.9787,220.8245a1.5854,1.5854,0,1,0,1.5854-1.5855A1.5863,1.5863,0,0,0,155.9787,220.8245Zm2.884,0a1.2994,1.2994,0,1,1-1.3-1.2976A1.3,1.3,0,0,1,158.8627,220.8245Z"/>
        <path id="Path_449" data-name="Path 449" class="cls-9" d="M100.6167,273.6405a1.5807,1.5807,0,0,0-2.9812-.7375l.3027.1443a1.2845,1.2845,0,0,1,1.0426-.5381,1.3,1.3,0,0,1,1.2985,1.2992,1.25,1.25,0,0,1-.0255.2478c-.0047.0142-.0148.0249-.0195.0384.0881.04.1819.08.2714.12.0094-.0336.0222-.0652.0289-.1009A1.559,1.559,0,0,0,100.6167,273.6405Z"/>
        <path id="Path_450" data-name="Path 450" class="cls-9" d="M111.0773,226.4088a1.5806,1.5806,0,0,0-.7813-1.3591l-.1177.2606a1.2956,1.2956,0,0,1-.6864,2.3963,1.26,1.26,0,0,1-.372-.0612l-.119.262a1.5669,1.5669,0,0,0,.491.0861A1.587,1.587,0,0,0,111.0773,226.4088Z"/>
        <path id="Path_451" data-name="Path 451" class="cls-9" d="M98.4461,252.46a1.2154,1.2154,0,1,1-1.2152,1.4153l-.2354.5179a1.687,1.687,0,1,0,1.0507-2.3163l-.2647.5839A1.26,1.26,0,0,1,98.4461,252.46Z"/>
        <path id="Path_452" data-name="Path 452" class="cls-9" d="M99.0326,263.2512a1.5866,1.5866,0,0,0-1.5538,1.278,1.5643,1.5643,0,0,0-.0807.4742,1.5846,1.5846,0,0,0,3.1392.3074,1.5607,1.5607,0,0,0,.0807-.4742A1.5871,1.5871,0,0,0,99.0326,263.2512Zm1.2239,2.0018a1.2951,1.2951,0,0,1-2.5225-.4164,1.2648,1.2648,0,0,1,.0256-.2485,1.295,1.295,0,0,1,2.5224.4167,1.2621,1.2621,0,0,1-.0252.2482Z"/>
        <path id="Path_453" data-name="Path 453" class="cls-9" d="M128.4642,277.8066a1.5854,1.5854,0,1,0,1.5854,1.5854A1.5873,1.5873,0,0,0,128.4642,277.8066Zm0,2.8839a1.2986,1.2986,0,1,1,1.2985-1.2985A1.3,1.3,0,0,1,128.4642,280.6905Z"/>
      </g>
      <path id="Path_454" data-name="Path 454" class="cls-12" d="M122.2321,223.3435a6.0986,6.0986,0,0,0,1.8767-4.8676c-.1759-3.1664,10.0278-2.287,10.0278-2.287l1.4657,1.5835-1.1728,7.7989s-1.1728,3.5778-7.3887,2.287C123.4049,226.6862,121.8218,224.34,122.2321,223.3435Z"/>
      <g id="Group_81" data-name="Group 81">
        <path id="Path_455" data-name="Path 455" class="cls-15" d="M134.45,224.6528l-.02.1345s-1.1727,3.5772-7.3886,2.287c-2.8924-.9329-4.4657-2.6-4.7889-3.7483l-.02.0182c-.41.9968,1.1727,3.3427,4.8094,4.5154,6.2156,1.2905,7.3886-2.2869,7.3886-2.2869l.141-.9377C134.53,224.64,134.4917,224.6474,134.45,224.6528Z"/>
      </g>
      <path id="Path_456" data-name="Path 456" class="cls-15" d="M125.6317,218.7066l8.8833,6.3.9474-6.3Z"/>
      <path id="Path_457" data-name="Path 457" class="cls-12" d="M122.6565,215.2489s7.8279,7.8474,15.79,5.1276,1.9682-26.482-9.5609-23.8789S117.3773,207.6356,122.6565,215.2489Z"/>
      <path id="Path_458" data-name="Path 458" class="cls-16" d="M115.5723,198.9844a4.7753,4.7753,0,0,0,.5549-.4373c1.195-1.14,1.1613-3.1584,1.87-4.6143a8.636,8.636,0,0,1,2.5641-3.1732c3.38-2.5063,8.3183-1.2575,11.5224.9753,1.9352,1.349,1.8185,1.9352,3.8123,1.877s3.5771-.528,4.75,1.5243.1759,5.5123-2.1114,7.3893-4.3978,3.5771-4.2219,7.2131a16.297,16.297,0,0,0-1.7007,0s-1.8162-2.2288-2.8147-1.7008-1.0561,2.3459,1.7,4.457c1.7593,1.349,1.2319,2.6384,1.2319,2.6384a7.4432,7.4432,0,0,1-4.127,3.55,7.9894,7.9894,0,0,1-5.139.9659c-3.1083-.3521-5.1619-2.0516-7.2135-4.3978s-.2354-3.4009-2.6976-6.4506a4.0314,4.0314,0,0,1-1.5249-4.6325,8.3269,8.3269,0,0,1,3.3717-5.061C115.4569,199.0664,115.5144,199.0254,115.5723,198.9844Z"/>
      <g id="Group_82" data-name="Group 82">
        <path id="Path_459" data-name="Path 459" class="cls-18" d="M132.7637,201.5771a1.8714,1.8714,0,0,1-.6215-.1009l.06-.1564a1.7391,1.7391,0,0,0,1.5135-.2122,1.8837,1.8837,0,0,0,.6575-.8129,1.2889,1.2889,0,0,1-1.0608-.3481.7909.7909,0,0,1-.2458-.7416.6681.6681,0,0,1,.3763-.5509.6793.6793,0,0,1,.6885.1793,1.2381,1.2381,0,0,1,.5045,1.02,1.3852,1.3852,0,0,1-.0236.2149,3.78,3.78,0,0,0,.825-.4137,1.38,1.38,0,0,0,.4009-1.89l.145-.0841a1.5647,1.5647,0,0,1-.4561,2.1155,3.5952,3.5952,0,0,1-.9625.4574,2.0177,2.0177,0,0,1-.7524.9894A1.7829,1.7829,0,0,1,132.7637,201.5771Zm.861-2.7891a.3159.3159,0,0,0-.1184.0222.5114.5114,0,0,0-.2721.419.6282.6282,0,0,0,.1847.5845,1.1117,1.1117,0,0,0,1.0136.3027,1.2406,1.2406,0,0,0,.0384-.269,1.0741,1.0741,0,0,0-.4426-.8849.6806.6806,0,0,0-.4036-.1742Z"/>
      </g>
      <g id="Group_83" data-name="Group 83">
        <path id="Path_460" data-name="Path 460" class="cls-18" d="M122.6983,213.0625a2.6385,2.6385,0,0,1-1.2609-.3791,7.8784,7.8784,0,0,1-1.2374-.8028,3.8835,3.8835,0,0,1-1.547-.44,3.3573,3.3573,0,0,1-1.5545-1.4993l.1543-.0673a3.2544,3.2544,0,0,0,1.4758,1.4166,3.8887,3.8887,0,0,0,1.271.4067,1.4851,1.4851,0,0,1-.4856-1.0588.3975.3975,0,0,1,.196-.3615,1.0759,1.0759,0,0,1,.9935.0047.8744.8744,0,0,1,.4965.7617.7178.7178,0,0,1-.31.68,1.0189,1.0189,0,0,1-.4332.1457,8.7832,8.7832,0,0,0,1.0614.6669c1.5538.8539,2.1209-.0652,2.1441-.1043l.1453.0848A1.2959,1.2959,0,0,1,122.6983,213.0625Zm-2.52-2.7367a.7121.7121,0,0,0-.3756.0922.23.23,0,0,0-.12.2115,1.3676,1.3676,0,0,0,.5818,1.083,1.0056,1.0056,0,0,0,.5355-.13.5507.5507,0,0,0,.233-.5307.7082.7082,0,0,0-.4036-.6209A1.0136,1.0136,0,0,0,120.1778,210.3258Z"/>
      </g>
      <g id="Group_84" data-name="Group 84">
        <path id="Path_461" data-name="Path 461" class="cls-8" d="M139.19,214.4935a2.6671,2.6671,0,0,1-1.981-.7735.1683.1683,0,0,1,.0047-.2378h0a.1683.1683,0,0,1,.2378.0047h0a2.9714,2.9714,0,0,0,2.8776.4937.1681.1681,0,0,1,.1113.3172A4.1075,4.1075,0,0,1,139.19,214.4935Z"/>
      </g>
      <g id="Group_85" data-name="Group 85">
        <circle id="Ellipse_10" data-name="Ellipse 10" class="cls-8" cx="134.7911" cy="210.6295" r="0.1365"/>
      </g>
      <g id="Group_86" data-name="Group 86">
        <circle id="Ellipse_11" data-name="Ellipse 11" class="cls-8" cx="135.4597" cy="211.0005" r="0.1365"/>
      </g>
      <g id="Group_87" data-name="Group 87">
        <circle id="Ellipse_12" data-name="Ellipse 12" class="cls-8" cx="135.7328" cy="210.2202" r="0.1365"/>
      </g>
      <g id="Group_88" data-name="Group 88">
        <circle id="Ellipse_13" data-name="Ellipse 13" class="cls-8" cx="136.5261" cy="210.493" r="0.1365"/>
      </g>
      <g id="Group_90" data-name="Group 90">
        <g id="Group_89" data-name="Group 89">
          <path id="Path_462" data-name="Path 462" class="cls-9" d="M139.3,211.2679a1.9988,1.9988,0,0,1-1.278-.5785,5.3762,5.3762,0,0,1-1.3584-2.0489c-.7167-1.8218-.4937-3.5576.5072-3.9518s2.3471.7248,3.0638,2.5473h0a5.3792,5.3792,0,0,1,.4016,2.4249,1.6828,1.6828,0,0,1-.9081,1.5269A1.1588,1.1588,0,0,1,139.3,211.2679Zm-1.7052-6.1346a.6355.6355,0,0,0-.233.0424c-.6269.2472-.862,1.6211-.2116,3.2734a4.8475,4.8475,0,0,0,1.2172,1.8475,1.2219,1.2219,0,0,0,1.168.4036c.3122-.1231.5227-.5207.58-1.0924a4.8554,4.8554,0,0,0-.3673-2.1811h0C139.172,205.9644,138.237,205.1333,137.5946,205.1333Z"/>
        </g>
      </g>
      <g id="Group_91" data-name="Group 91">
        <circle id="Ellipse_14" data-name="Ellipse 14" class="cls-18" cx="138.0083" cy="207.2599" r="0.678"/>
      </g>
      <g id="Group_92" data-name="Group 92">
        <path id="Path_463" data-name="Path 463" class="cls-18" d="M135.7321,206.1534h-.0141a.1682.1682,0,0,1-.1537-.1806,2.6033,2.6033,0,0,1,.9531-1.7825,2.2558,2.2558,0,0,1,1.9756-.1826.168.168,0,0,1-.0942.3225,1.9426,1.9426,0,0,0-1.6907.1362,2.2838,2.2838,0,0,0-.8072,1.5357A.1681.1681,0,0,1,135.7321,206.1534Z"/>
      </g>
    </g>
    <g>
      <path class="cls-9" d="M183.0186,154.0975h4.2558v11.9282c0,5.376-2.5757,7.252-6.72,7.252a11.0994,11.0994,0,0,1-3.1079-.4483l.4756-3.4438a7.0279,7.0279,0,0,0,2.184.3359c1.792,0,2.9122-.812,2.9122-3.7519Z"/>
      <path class="cls-9" d="M198.3335,172.97l-.2524-1.3721h-.084a4.9317,4.9317,0,0,1-3.92,1.68,4.197,4.197,0,0,1-4.4238-4.2c0-3.5557,3.1919-5.2637,8.0362-5.2359v-.1958c0-.728-.3921-1.7641-2.4922-1.7641a7.6991,7.6991,0,0,0-3.78,1.0361l-.7842-2.7441a11.2987,11.2987,0,0,1,5.32-1.2041c4.564,0,6.02,2.6879,6.02,5.9082v4.76a21.1973,21.1973,0,0,0,.1963,3.3321Zm-.5044-6.4678c-2.24-.0283-3.9756.5039-3.9756,2.1557a1.5286,1.5286,0,0,0,1.68,1.6241,2.325,2.325,0,0,0,2.2119-1.5679,3.0429,3.0429,0,0,0,.084-.728Z"/>
      <path class="cls-9" d="M208.1592,159.2777l1.8481,6.3559a31.584,31.584,0,0,1,.7837,3.332h.084c.2241-1.12.4482-2.1562.7559-3.332l1.7641-6.3559h4.48L212.7793,172.97h-4.2564l-4.9838-13.6919Z"/>
      <path class="cls-9" d="M227.4214,172.97l-.2525-1.3721h-.0839a4.9317,4.9317,0,0,1-3.92,1.68,4.197,4.197,0,0,1-4.4238-4.2c0-3.5557,3.1919-5.2637,8.0361-5.2359v-.1958c0-.728-.392-1.7641-2.4921-1.7641a7.6991,7.6991,0,0,0-3.78,1.0361l-.7842-2.7441a11.2987,11.2987,0,0,1,5.32-1.2041c4.564,0,6.02,2.6879,6.02,5.9082v4.76a21.1973,21.1973,0,0,0,.1963,3.3321Zm-.5044-6.4678c-2.24-.0283-3.9756.5039-3.9756,2.1557a1.5286,1.5286,0,0,0,1.68,1.6241,2.325,2.325,0,0,0,2.2119-1.5679,3.0429,3.0429,0,0,0,.084-.728Z"/>
      <path class="cls-9" d="M234.6992,168.5736a10.8915,10.8915,0,0,0,4.732,1.1757c1.96,0,2.996-.8115,2.996-2.0439,0-1.1758-.8959-1.8477-3.164-2.66-3.1358-1.0923-5.18-2.8281-5.18-5.5722,0-3.22,2.688-5.6836,7.14-5.6836a11.5664,11.5664,0,0,1,4.8165.9516l-.9522,3.4444a8.9661,8.9661,0,0,0-3.9482-.8965c-1.8477,0-2.7437.84-2.7437,1.82,0,1.2041,1.064,1.7358,3.5,2.66,3.332,1.232,4.9,2.9678,4.9,5.628,0,3.1635-2.436,5.8515-7.6162,5.8515a12.3443,12.3443,0,0,1-5.3477-1.1479Z"/>
      <path class="cls-9" d="M260.0083,172.6336a10.3833,10.3833,0,0,1-3.8081.6157c-4.4238,0-7.252-2.688-7.252-7,0-4.0039,2.7442-7.28,7.84-7.28a9.8714,9.8714,0,0,1,3.2475.5322l-.6718,3.1636a5.8269,5.8269,0,0,0-2.38-.42,3.8386,3.8386,0,0,0,.084,7.6724,6.5676,6.5676,0,0,0,2.436-.42Z"/>
      <path class="cls-9" d="M262.3584,163.7855c0-2.0157-.0562-3.3321-.1118-4.5078h3.668l.14,2.52h.1123a4.0212,4.0212,0,0,1,3.6958-2.8281,4.3788,4.3788,0,0,1,.896.0561V163.03a6.0946,6.0946,0,0,0-1.1479-.1118,2.7365,2.7365,0,0,0-2.9122,2.1558,5.0554,5.0554,0,0,0-.0839.9521V172.97h-4.2559Z"/>
      <path class="cls-9" d="M277.3926,155.47a2.1369,2.1369,0,0,1-2.2959,2.1279,2.1435,2.1435,0,1,1,.0278-4.2837A2.1343,2.1343,0,0,1,277.3926,155.47Zm-4.396,17.5V159.2777h4.2558V172.97Z"/>
      <path class="cls-9" d="M280.667,163.87c0-1.792-.0562-3.3321-.1118-4.5918h3.6958l.1958,1.9038h.0561a5.2542,5.2542,0,0,1,4.564-2.2119c2.9961,0,5.6836,2.604,5.6836,6.9721,0,4.9839-3.1631,7.336-6.2158,7.336a4.252,4.252,0,0,1-3.5557-1.5679h-.0561v6.8037H280.667Zm4.2559,3.22a4.2665,4.2665,0,0,0,.0839.896,2.5769,2.5769,0,0,0,2.4922,2.0161c1.8482,0,2.94-1.54,2.94-3.8643,0-2.1841-.9805-3.8359-2.8838-3.8359a2.6742,2.6742,0,0,0-2.5484,2.1557,3.32,3.32,0,0,0-.0839.7564Z"/>
      <path class="cls-9" d="M302.168,155.3577v3.92H305.22v3.1357H302.168V167.37c0,1.6523.3925,2.4082,1.6806,2.4082a6.9467,6.9467,0,0,0,1.26-.1123l.0273,3.22a8.3415,8.3415,0,0,1-2.7714.3637,4.4259,4.4259,0,0,1-3.1919-1.1757c-.7842-.8121-1.1758-2.128-1.1758-4.06v-5.6h-1.82v-3.1357h1.82v-2.9683Z"/>
    </g>
    <g>
      <path class="cls-9" d="M423.69,420.2591l3.7295-1.4814,5.2656,13.249c2.2413,5.6377.26,8.6015-3.8027,10.2168a10.6819,10.6819,0,0,1-3.3154.7558l-.7373-3.1816a8.7826,8.7826,0,0,0,2.4472-.5518c2.1231-.8437,3.0411-2.332,1.6309-5.88Z"/>
      <path class="cls-9" d="M437.94,434.29a8.9515,8.9515,0,0,0,4.2109-.4454c1.6367-.6513,2.1-1.6074,1.7148-2.5781-.3974-1-1.2089-1.2734-3.2812-1.1865-3.2774.1435-5.1172-.9512-5.7735-2.69-1.0361-2.6075.31-5.4942,3.7344-6.8555a9.31,9.31,0,0,1,4.26-.6758l.3223,2.9268a7.1235,7.1235,0,0,0-3.461.3916c-1.334.53-1.8076,1.457-1.4463,2.3662.3741.9394,1.251,1.1172,3.3955,1.0371,3.0537-.0908,4.8389.7793,5.7364,2.95,1.06,2.668-.26,5.44-4.17,6.9941a10.245,10.245,0,0,1-4.8964.752Z"/>
    </g>
    <rect class="cls-1" y="-89.1423" width="600" height="600"/>
  </g>
</svg>
